<mxfile host="app.diagrams.net" agent="Mozilla/5.0 (Windows NT 10.0; Win64; x64) AppleWebKit/537.36 (KHTML, like Gecko) Chrome/134.0.0.0 Safari/537.36 Edg/134.0.0.0" version="26.1.1">
  <diagram name="Page-1" id="-7hhADzpoSN9FOFBCRWx">
    <mxGraphModel dx="1424" dy="-419" grid="1" gridSize="10" guides="1" tooltips="1" connect="1" arrows="1" fold="1" page="1" pageScale="1" pageWidth="850" pageHeight="1100" math="0" shadow="0">
      <root>
        <mxCell id="0" />
        <mxCell id="1" parent="0" />
        <UserObject label="" plantUmlData="{&#xa;  &quot;data&quot;: &quot;@startuml\nstate \&quot;Draft\&quot; as Draft : Entry / Initialize Request\nstate \&quot;Pending\&quot; as Pending : Entry / Send Invites\nstate \&quot;Rescheduling\&quot; as Rescheduling : Entry / Notify Organizer\nstate \&quot;Scheduled\&quot; as Scheduled : Do / Monitor Time\nstate \&quot;Active\&quot; as Active : Do / Track Meeting\nstate \&quot;Completed\&quot; as Completed : Exit / Archive Data\nstate \&quot;Canceled\&quot; as Canceled : Exit / Release Resources\n\n[*] --&gt; Draft\nDraft --&gt; Pending : Submit Request\nPending --&gt; Scheduled : [All Accepted] Attendees Confirm\nPending --&gt; Rescheduling : [Some Decline] Decline Received\nRescheduling --&gt; Draft : Modify Details\nScheduled --&gt; Active : Start Meeting\nActive --&gt; Completed : End Meeting\nScheduled --&gt; Canceled : Cancel Request\nPending --&gt; Canceled : Cancel Request\nRescheduling --&gt; Canceled : Cancel Request\nCompleted --&gt; [*]\nCanceled --&gt; [*]\n@enduml&quot;,&#xa;  &quot;format&quot;: &quot;svg&quot;&#xa;}" id="S-Q9WKFuRo85aY7dy_94-2">
          <mxCell style="shape=image;noLabel=1;verticalAlign=top;aspect=fixed;imageAspect=0;image=data:image/svg+xml,PHN2ZyB4bWxucz0iaHR0cDovL3d3dy53My5vcmcvMjAwMC9zdmciIHhtbG5zOnhsaW5rPSJodHRwOi8vd3d3LnczLm9yZy8xOTk5L3hsaW5rIiBjb250ZW50U3R5bGVUeXBlPSJ0ZXh0L2NzcyIgZGF0YS1kaWFncmFtLXR5cGU9IlNUQVRFIiBoZWlnaHQ9IjcyNnB4IiBwcmVzZXJ2ZUFzcGVjdFJhdGlvPSJub25lIiBzdHlsZT0id2lkdGg6NjU0cHg7aGVpZ2h0OjcyNnB4O2JhY2tncm91bmQ6I0ZGRkZGRjsiIHZlcnNpb249IjEuMSIgdmlld0JveD0iMCAwIDY1NCA3MjYiIHdpZHRoPSI2NTRweCIgem9vbUFuZFBhbj0ibWFnbmlmeSI+PGRlZnMvPjxnPjxnIGlkPSJEcmFmdCI+PHJlY3QgZmlsbD0iI0YxRjFGMSIgaGVpZ2h0PSI1MCIgcng9IjEyLjUiIHJ5PSIxMi41IiBzdHlsZT0ic3Ryb2tlOiMxODE4MTg7c3Ryb2tlLXdpZHRoOjAuNTsiIHdpZHRoPSIxNzYiIHg9IjM3MCIgeT0iODciLz48bGluZSBzdHlsZT0ic3Ryb2tlOiMxODE4MTg7c3Ryb2tlLXdpZHRoOjAuNTsiIHgxPSIzNzAiIHgyPSI1NDYiIHkxPSIxMTEuOTg0NCIgeTI9IjExMS45ODQ0Ii8+PHRleHQgZmlsbD0iIzAwMDAwMCIgZm9udC1mYW1pbHk9InNhbnMtc2VyaWYiIGZvbnQtc2l6ZT0iMTQiIGxlbmd0aEFkanVzdD0ic3BhY2luZyIgdGV4dExlbmd0aD0iMzUiIHg9IjQ0MC41IiB5PSIxMDUuMjM0NCI+RHJhZnQ8L3RleHQ+PHRleHQgZmlsbD0iIzAwMDAwMCIgZm9udC1mYW1pbHk9InNhbnMtc2VyaWYiIGZvbnQtc2l6ZT0iMTIiIGxlbmd0aEFkanVzdD0ic3BhY2luZyIgdGV4dExlbmd0aD0iMTU2IiB4PSIzNzUiIHk9IjEyOC4zMjgxIj5FbnRyeSAvIEluaXRpYWxpemUgUmVxdWVzdDwvdGV4dD48L2c+PGcgaWQ9IlBlbmRpbmciPjxyZWN0IGZpbGw9IiNGMUYxRjEiIGhlaWdodD0iNTAiIHJ4PSIxMi41IiByeT0iMTIuNSIgc3R5bGU9InN0cm9rZTojMTgxODE4O3N0cm9rZS13aWR0aDowLjU7IiB3aWR0aD0iMTQwIiB4PSIyNjAiIHk9IjIxMiIvPjxsaW5lIHN0eWxlPSJzdHJva2U6IzE4MTgxODtzdHJva2Utd2lkdGg6MC41OyIgeDE9IjI2MCIgeDI9IjQwMCIgeTE9IjIzNi45ODQ0IiB5Mj0iMjM2Ljk4NDQiLz48dGV4dCBmaWxsPSIjMDAwMDAwIiBmb250LWZhbWlseT0ic2Fucy1zZXJpZiIgZm9udC1zaXplPSIxNCIgbGVuZ3RoQWRqdXN0PSJzcGFjaW5nIiB0ZXh0TGVuZ3RoPSI0OSIgeD0iMzA1LjUiIHk9IjIzMC4yMzQ0Ij5QZW5kaW5nPC90ZXh0Pjx0ZXh0IGZpbGw9IiMwMDAwMDAiIGZvbnQtZmFtaWx5PSJzYW5zLXNlcmlmIiBmb250LXNpemU9IjEyIiBsZW5ndGhBZGp1c3Q9InNwYWNpbmciIHRleHRMZW5ndGg9IjEyMCIgeD0iMjY1IiB5PSIyNTMuMzI4MSI+RW50cnkgLyBTZW5kIEludml0ZXM8L3RleHQ+PC9nPjxnIGlkPSJSZXNjaGVkdWxpbmciPjxyZWN0IGZpbGw9IiNGMUYxRjEiIGhlaWdodD0iNTAiIHJ4PSIxMi41IiByeT0iMTIuNSIgc3R5bGU9InN0cm9rZTojMTgxODE4O3N0cm9rZS13aWR0aDowLjU7IiB3aWR0aD0iMTY0IiB4PSI0MjkiIHk9IjMzNyIvPjxsaW5lIHN0eWxlPSJzdHJva2U6IzE4MTgxODtzdHJva2Utd2lkdGg6MC41OyIgeDE9IjQyOSIgeDI9IjU5MyIgeTE9IjM2MS45ODQ0IiB5Mj0iMzYxLjk4NDQiLz48dGV4dCBmaWxsPSIjMDAwMDAwIiBmb250LWZhbWlseT0ic2Fucy1zZXJpZiIgZm9udC1zaXplPSIxNCIgbGVuZ3RoQWRqdXN0PSJzcGFjaW5nIiB0ZXh0TGVuZ3RoPSI4NCIgeD0iNDY5IiB5PSIzNTUuMjM0NCI+UmVzY2hlZHVsaW5nPC90ZXh0Pjx0ZXh0IGZpbGw9IiMwMDAwMDAiIGZvbnQtZmFtaWx5PSJzYW5zLXNlcmlmIiBmb250LXNpemU9IjEyIiBsZW5ndGhBZGp1c3Q9InNwYWNpbmciIHRleHRMZW5ndGg9IjE0NCIgeD0iNDM0IiB5PSIzNzguMzI4MSI+RW50cnkgLyBOb3RpZnkgT3JnYW5pemVyPC90ZXh0PjwvZz48ZyBpZD0iU2NoZWR1bGVkIj48cmVjdCBmaWxsPSIjRjFGMUYxIiBoZWlnaHQ9IjUwIiByeD0iMTIuNSIgcnk9IjEyLjUiIHN0eWxlPSJzdHJva2U6IzE4MTgxODtzdHJva2Utd2lkdGg6MC41OyIgd2lkdGg9IjEyMiIgeD0iNyIgeT0iMzM3Ii8+PGxpbmUgc3R5bGU9InN0cm9rZTojMTgxODE4O3N0cm9rZS13aWR0aDowLjU7IiB4MT0iNyIgeDI9IjEyOSIgeTE9IjM2MS45ODQ0IiB5Mj0iMzYxLjk4NDQiLz48dGV4dCBmaWxsPSIjMDAwMDAwIiBmb250LWZhbWlseT0ic2Fucy1zZXJpZiIgZm9udC1zaXplPSIxNCIgbGVuZ3RoQWRqdXN0PSJzcGFjaW5nIiB0ZXh0TGVuZ3RoPSI2MyIgeD0iMzYuNSIgeT0iMzU1LjIzNDQiPlNjaGVkdWxlZDwvdGV4dD48dGV4dCBmaWxsPSIjMDAwMDAwIiBmb250LWZhbWlseT0ic2Fucy1zZXJpZiIgZm9udC1zaXplPSIxMiIgbGVuZ3RoQWRqdXN0PSJzcGFjaW5nIiB0ZXh0TGVuZ3RoPSIxMDIiIHg9IjEyIiB5PSIzNzguMzI4MSI+RG8gLyBNb25pdG9yIFRpbWU8L3RleHQ+PC9nPjxnIGlkPSJBY3RpdmUiPjxyZWN0IGZpbGw9IiNGMUYxRjEiIGhlaWdodD0iNTAiIHJ4PSIxMi41IiByeT0iMTIuNSIgc3R5bGU9InN0cm9rZTojMTgxODE4O3N0cm9rZS13aWR0aDowLjU7IiB3aWR0aD0iMTI4IiB4PSIyNSIgeT0iNDYyIi8+PGxpbmUgc3R5bGU9InN0cm9rZTojMTgxODE4O3N0cm9rZS13aWR0aDowLjU7IiB4MT0iMjUiIHgyPSIxNTMiIHkxPSI0ODYuOTg0NCIgeTI9IjQ4Ni45ODQ0Ii8+PHRleHQgZmlsbD0iIzAwMDAwMCIgZm9udC1mYW1pbHk9InNhbnMtc2VyaWYiIGZvbnQtc2l6ZT0iMTQiIGxlbmd0aEFkanVzdD0ic3BhY2luZyIgdGV4dExlbmd0aD0iNDIiIHg9IjY4IiB5PSI0ODAuMjM0NCI+QWN0aXZlPC90ZXh0Pjx0ZXh0IGZpbGw9IiMwMDAwMDAiIGZvbnQtZmFtaWx5PSJzYW5zLXNlcmlmIiBmb250LXNpemU9IjEyIiBsZW5ndGhBZGp1c3Q9InNwYWNpbmciIHRleHRMZW5ndGg9IjEwOCIgeD0iMzAiIHk9IjUwMy4zMjgxIj5EbyAvIFRyYWNrIE1lZXRpbmc8L3RleHQ+PC9nPjxnIGlkPSJDb21wbGV0ZWQiPjxyZWN0IGZpbGw9IiNGMUYxRjEiIGhlaWdodD0iNTAiIHJ4PSIxMi41IiByeT0iMTIuNSIgc3R5bGU9InN0cm9rZTojMTgxODE4O3N0cm9rZS13aWR0aDowLjU7IiB3aWR0aD0iMTM0IiB4PSI2NyIgeT0iNTg3Ii8+PGxpbmUgc3R5bGU9InN0cm9rZTojMTgxODE4O3N0cm9rZS13aWR0aDowLjU7IiB4MT0iNjciIHgyPSIyMDEiIHkxPSI2MTEuOTg0NCIgeTI9IjYxMS45ODQ0Ii8+PHRleHQgZmlsbD0iIzAwMDAwMCIgZm9udC1mYW1pbHk9InNhbnMtc2VyaWYiIGZvbnQtc2l6ZT0iMTQiIGxlbmd0aEFkanVzdD0ic3BhY2luZyIgdGV4dExlbmd0aD0iNjMiIHg9IjEwMi41IiB5PSI2MDUuMjM0NCI+Q29tcGxldGVkPC90ZXh0Pjx0ZXh0IGZpbGw9IiMwMDAwMDAiIGZvbnQtZmFtaWx5PSJzYW5zLXNlcmlmIiBmb250LXNpemU9IjEyIiBsZW5ndGhBZGp1c3Q9InNwYWNpbmciIHRleHRMZW5ndGg9IjExNCIgeD0iNzIiIHk9IjYyOC4zMjgxIj5FeGl0IC8gQXJjaGl2ZSBEYXRhPC90ZXh0PjwvZz48ZyBpZD0iQ2FuY2VsZWQiPjxyZWN0IGZpbGw9IiNGMUYxRjEiIGhlaWdodD0iNTAiIHJ4PSIxMi41IiByeT0iMTIuNSIgc3R5bGU9InN0cm9rZTojMTgxODE4O3N0cm9rZS13aWR0aDowLjU7IiB3aWR0aD0iMTY0IiB4PSIyMDMiIHk9IjQ2MiIvPjxsaW5lIHN0eWxlPSJzdHJva2U6IzE4MTgxODtzdHJva2Utd2lkdGg6MC41OyIgeDE9IjIwMyIgeDI9IjM2NyIgeTE9IjQ4Ni45ODQ0IiB5Mj0iNDg2Ljk4NDQiLz48dGV4dCBmaWxsPSIjMDAwMDAwIiBmb250LWZhbWlseT0ic2Fucy1zZXJpZiIgZm9udC1zaXplPSIxNCIgbGVuZ3RoQWRqdXN0PSJzcGFjaW5nIiB0ZXh0TGVuZ3RoPSI1NiIgeD0iMjU3IiB5PSI0ODAuMjM0NCI+Q2FuY2VsZWQ8L3RleHQ+PHRleHQgZmlsbD0iIzAwMDAwMCIgZm9udC1mYW1pbHk9InNhbnMtc2VyaWYiIGZvbnQtc2l6ZT0iMTIiIGxlbmd0aEFkanVzdD0ic3BhY2luZyIgdGV4dExlbmd0aD0iMTQ0IiB4PSIyMDgiIHk9IjUwMy4zMjgxIj5FeGl0IC8gUmVsZWFzZSBSZXNvdXJjZXM8L3RleHQ+PC9nPjxlbGxpcHNlIGN4PSI0NTgiIGN5PSIxNiIgZmlsbD0iIzIyMjIyMiIgcng9IjEwIiByeT0iMTAiIHN0eWxlPSJzdHJva2U6IzIyMjIyMjtzdHJva2Utd2lkdGg6MTsiLz48ZWxsaXBzZSBjeD0iMjAyIiBjeT0iNzA5IiBmaWxsPSJub25lIiByeD0iMTEiIHJ5PSIxMSIgc3R5bGU9InN0cm9rZTojMjIyMjIyO3N0cm9rZS13aWR0aDoxOyIvPjxlbGxpcHNlIGN4PSIyMDIiIGN5PSI3MDkiIGZpbGw9IiMyMjIyMjIiIHJ4PSI2IiByeT0iNiIgc3R5bGU9InN0cm9rZTojMjIyMjIyO3N0cm9rZS13aWR0aDoxOyIvPjwhLS1saW5rICpzdGFydCogdG8gRHJhZnQtLT48ZyBjbGFzcz0ibGluayIgZGF0YS1lbnRpdHktMT0iKnN0YXJ0KiIgZGF0YS1lbnRpdHktMj0iRHJhZnQiIGRhdGEtc291cmNlLWxpbmU9IjkiIGRhdGEtdWlkPSJsbmszIiBpZD0ibGlua18qc3RhcnQqX0RyYWZ0Ij48cGF0aCBkPSJNNDU4LDI2LjAxIEM0NTgsMzkuODkgNDU4LDYwLjk3IDQ1OCw4MC44NCIgZmlsbD0ibm9uZSIgaWQ9IipzdGFydCotdG8tRHJhZnQiIHN0eWxlPSJzdHJva2U6IzE4MTgxODtzdHJva2Utd2lkdGg6MTsiLz48cG9seWdvbiBmaWxsPSIjMTgxODE4IiBwb2ludHM9IjQ1OCw4Ni44NCw0NjIsNzcuODQsNDU4LDgxLjg0LDQ1NCw3Ny44NCw0NTgsODYuODQiIHN0eWxlPSJzdHJva2U6IzE4MTgxODtzdHJva2Utd2lkdGg6MTsiLz48L2c+PCEtLWxpbmsgRHJhZnQgdG8gUGVuZGluZy0tPjxnIGNsYXNzPSJsaW5rIiBkYXRhLWVudGl0eS0xPSJEcmFmdCIgZGF0YS1lbnRpdHktMj0iUGVuZGluZyIgZGF0YS1zb3VyY2UtbGluZT0iMTAiIGRhdGEtdWlkPSJsbms0IiBpZD0ibGlua19EcmFmdF9QZW5kaW5nIj48cGF0aCBkPSJNNDMzLjAyLDEzNy4wMSBDNDEwLjYxLDE1OC41NCAzODIuMjA2MywxODUuODMyNyAzNTkuNjg2MywyMDcuNDcyNyIgZmlsbD0ibm9uZSIgaWQ9IkRyYWZ0LXRvLVBlbmRpbmciIHN0eWxlPSJzdHJva2U6IzE4MTgxODtzdHJva2Utd2lkdGg6MTsiLz48cG9seWdvbiBmaWxsPSIjMTgxODE4IiBwb2ludHM9IjM1NS4zNiwyMTEuNjMsMzY0LjYyMSwyMDguMjc4MywzNTguOTY1MywyMDguMTY1NiwzNTkuMDc4LDIwMi41MDk5LDM1NS4zNiwyMTEuNjMiIHN0eWxlPSJzdHJva2U6IzE4MTgxODtzdHJva2Utd2lkdGg6MTsiLz48dGV4dCBmaWxsPSIjMDAwMDAwIiBmb250LWZhbWlseT0ic2Fucy1zZXJpZiIgZm9udC1zaXplPSIxMyIgbGVuZ3RoQWRqdXN0PSJzcGFjaW5nIiB0ZXh0TGVuZ3RoPSI5MSIgeD0iNDAzIiB5PSIxODAuMjg5MSI+U3VibWl0IFJlcXVlc3Q8L3RleHQ+PC9nPjwhLS1saW5rIFBlbmRpbmcgdG8gU2NoZWR1bGVkLS0+PGcgY2xhc3M9ImxpbmsiIGRhdGEtZW50aXR5LTE9IlBlbmRpbmciIGRhdGEtZW50aXR5LTI9IlNjaGVkdWxlZCIgZGF0YS1zb3VyY2UtbGluZT0iMTEiIGRhdGEtdWlkPSJsbms1IiBpZD0ibGlua19QZW5kaW5nX1NjaGVkdWxlZCI+PHBhdGggZD0iTTI1OS43NSwyNDIuNSBDMTg5LjcxLDI0OC42MiA4OS4xNywyNjIuNDEgNjUsMjkyIEM1NC45OSwzMDQuMjYgNTQuNzI0NCwzMTYuMzc5OCA1OC4xNDQ0LDMzMC44OTk4IiBmaWxsPSJub25lIiBpZD0iUGVuZGluZy10by1TY2hlZHVsZWQiIHN0eWxlPSJzdHJva2U6IzE4MTgxODtzdHJva2Utd2lkdGg6MTsiLz48cG9seWdvbiBmaWxsPSIjMTgxODE4IiBwb2ludHM9IjU5LjUyLDMzNi43NCw2MS4zNTAxLDMyNy4wNjI3LDU4LjM3MzcsMzMxLjg3MzIsNTMuNTYzMiwzMjguODk2OCw1OS41MiwzMzYuNzQiIHN0eWxlPSJzdHJva2U6IzE4MTgxODtzdHJva2Utd2lkdGg6MTsiLz48dGV4dCBmaWxsPSIjMDAwMDAwIiBmb250LWZhbWlseT0ic2Fucy1zZXJpZiIgZm9udC1zaXplPSIxMyIgbGVuZ3RoQWRqdXN0PSJzcGFjaW5nIiB0ZXh0TGVuZ3RoPSIyMDgiIHg9IjY2IiB5PSIzMDUuMjg5MSI+W0FsbCBBY2NlcHRlZF0gQXR0ZW5kZWVzIENvbmZpcm08L3RleHQ+PC9nPjwhLS1saW5rIFBlbmRpbmcgdG8gUmVzY2hlZHVsaW5nLS0+PGcgY2xhc3M9ImxpbmsiIGRhdGEtZW50aXR5LTE9IlBlbmRpbmciIGRhdGEtZW50aXR5LTI9IlJlc2NoZWR1bGluZyIgZGF0YS1zb3VyY2UtbGluZT0iMTIiIGRhdGEtdWlkPSJsbms2IiBpZD0ibGlua19QZW5kaW5nX1Jlc2NoZWR1bGluZyI+PHBhdGggZD0iTTMzMy44LDI2Mi4yNSBDMzM3LjI3LDI3Ni45NSAzNDMuODEsMjk1LjExIDM1NiwzMDcgQzM3NS43OSwzMjYuMyAzOTcuMTA2MSwzMzYuOTUzIDQyMy4wNjYxLDM0NC45NTMiIGZpbGw9Im5vbmUiIGlkPSJQZW5kaW5nLXRvLVJlc2NoZWR1bGluZyIgc3R5bGU9InN0cm9rZTojMTgxODE4O3N0cm9rZS13aWR0aDoxOyIvPjxwb2x5Z29uIGZpbGw9IiMxODE4MTgiIHBvaW50cz0iNDI4LjgsMzQ2LjcyLDQyMS4zNzcxLDM0MC4yNDY5LDQyNC4wMjE3LDM0NS4yNDc1LDQxOS4wMjExLDM0Ny44OTIxLDQyOC44LDM0Ni43MiIgc3R5bGU9InN0cm9rZTojMTgxODE4O3N0cm9rZS13aWR0aDoxOyIvPjx0ZXh0IGZpbGw9IiMwMDAwMDAiIGZvbnQtZmFtaWx5PSJzYW5zLXNlcmlmIiBmb250LXNpemU9IjEzIiBsZW5ndGhBZGp1c3Q9InNwYWNpbmciIHRleHRMZW5ndGg9IjIwMS41IiB4PSIzNTciIHk9IjMwNS4yODkxIj5bU29tZSBEZWNsaW5lXSBEZWNsaW5lIFJlY2VpdmVkPC90ZXh0PjwvZz48IS0tbGluayBSZXNjaGVkdWxpbmcgdG8gRHJhZnQtLT48ZyBjbGFzcz0ibGluayIgZGF0YS1lbnRpdHktMT0iUmVzY2hlZHVsaW5nIiBkYXRhLWVudGl0eS0yPSJEcmFmdCIgZGF0YS1zb3VyY2UtbGluZT0iMTMiIGRhdGEtdWlkPSJsbms3IiBpZD0ibGlua19SZXNjaGVkdWxpbmdfRHJhZnQiPjxwYXRoIGQ9Ik01NDEuODksMzM2Ljg1IEM1NTAuMzcsMzI4LjQyIDU1OC40NywzMTguMjMgNTYzLDMwNyBDNTY1LjQ5LDMwMC44MiA1NjQuNDgsMjk4LjUgNTYzLDI5MiBDNTQ5LjMzLDIzMS45MSA1MzYuMzEsMjE4Ljg0IDUwMywxNjcgQzQ5Ni4zNCwxNTYuNjMgNDkxLjgzNDcsMTUwLjU5NTUgNDg0LjA5NDcsMTQxLjU2NTUiIGZpbGw9Im5vbmUiIGlkPSJSZXNjaGVkdWxpbmctdG8tRHJhZnQiIHN0eWxlPSJzdHJva2U6IzE4MTgxODtzdHJva2Utd2lkdGg6MTsiLz48cG9seWdvbiBmaWxsPSIjMTgxODE4IiBwb2ludHM9IjQ4MC4xOSwxMzcuMDEsNDgzLjAxMDEsMTQ2LjQ0NjUsNDgzLjQ0NCwxNDAuODA2Myw0ODkuMDg0MSwxNDEuMjQwMSw0ODAuMTksMTM3LjAxIiBzdHlsZT0ic3Ryb2tlOiMxODE4MTg7c3Ryb2tlLXdpZHRoOjE7Ii8+PHRleHQgZmlsbD0iIzAwMDAwMCIgZm9udC1mYW1pbHk9InNhbnMtc2VyaWYiIGZvbnQtc2l6ZT0iMTMiIGxlbmd0aEFkanVzdD0ic3BhY2luZyIgdGV4dExlbmd0aD0iOTEiIHg9IjU1NSIgeT0iMjQyLjc4OTEiPk1vZGlmeSBEZXRhaWxzPC90ZXh0PjwvZz48IS0tbGluayBTY2hlZHVsZWQgdG8gQWN0aXZlLS0+PGcgY2xhc3M9ImxpbmsiIGRhdGEtZW50aXR5LTE9IlNjaGVkdWxlZCIgZGF0YS1lbnRpdHktMj0iQWN0aXZlIiBkYXRhLXNvdXJjZS1saW5lPSIxNCIgZGF0YS11aWQ9ImxuazgiIGlkPSJsaW5rX1NjaGVkdWxlZF9BY3RpdmUiPjxwYXRoIGQ9Ik01OC41NiwzODcuMjIgQzU0LjY1LDQwMC41OCA1MS44OCw0MTcuMzcgNTYsNDMyIEM1OC45NSw0NDIuNDcgNjEuMjg0OSw0NDcuODg2MiA2Ny4wNDQ5LDQ1Ni43NjYyIiBmaWxsPSJub25lIiBpZD0iU2NoZWR1bGVkLXRvLUFjdGl2ZSIgc3R5bGU9InN0cm9rZTojMTgxODE4O3N0cm9rZS13aWR0aDoxOyIvPjxwb2x5Z29uIGZpbGw9IiMxODE4MTgiIHBvaW50cz0iNzAuMzEsNDYxLjgsNjguNzY4MSw0NTIuMDcyNiw2Ny41ODksNDU3LjYwNTIsNjIuMDU2NCw0NTYuNDI2MSw3MC4zMSw0NjEuOCIgc3R5bGU9InN0cm9rZTojMTgxODE4O3N0cm9rZS13aWR0aDoxOyIvPjx0ZXh0IGZpbGw9IiMwMDAwMDAiIGZvbnQtZmFtaWx5PSJzYW5zLXNlcmlmIiBmb250LXNpemU9IjEzIiBsZW5ndGhBZGp1c3Q9InNwYWNpbmciIHRleHRMZW5ndGg9Ijg0LjUiIHg9IjU3IiB5PSI0MzAuMjg5MSI+U3RhcnQgTWVldGluZzwvdGV4dD48L2c+PCEtLWxpbmsgQWN0aXZlIHRvIENvbXBsZXRlZC0tPjxnIGNsYXNzPSJsaW5rIiBkYXRhLWVudGl0eS0xPSJBY3RpdmUiIGRhdGEtZW50aXR5LTI9IkNvbXBsZXRlZCIgZGF0YS1zb3VyY2UtbGluZT0iMTUiIGRhdGEtdWlkPSJsbms5IiBpZD0ibGlua19BY3RpdmVfQ29tcGxldGVkIj48cGF0aCBkPSJNOTcuNzgsNTEyLjAxIEMxMDUuNjYsNTMzLjU0IDExNS4xMDc4LDU1OS4zNTU1IDEyMy4wMjc4LDU4MC45OTU1IiBmaWxsPSJub25lIiBpZD0iQWN0aXZlLXRvLUNvbXBsZXRlZCIgc3R5bGU9InN0cm9rZTojMTgxODE4O3N0cm9rZS13aWR0aDoxOyIvPjxwb2x5Z29uIGZpbGw9IiMxODE4MTgiIHBvaW50cz0iMTI1LjA5LDU4Ni42MywxMjUuNzUzMSw1NzYuODAzNSwxMjMuMzcxNSw1ODEuOTM0NiwxMTguMjQwNCw1NzkuNTUzLDEyNS4wOSw1ODYuNjMiIHN0eWxlPSJzdHJva2U6IzE4MTgxODtzdHJva2Utd2lkdGg6MTsiLz48dGV4dCBmaWxsPSIjMDAwMDAwIiBmb250LWZhbWlseT0ic2Fucy1zZXJpZiIgZm9udC1zaXplPSIxMyIgbGVuZ3RoQWRqdXN0PSJzcGFjaW5nIiB0ZXh0TGVuZ3RoPSI3MS41IiB4PSIxMTYiIHk9IjU1NS4yODkxIj5FbmQgTWVldGluZzwvdGV4dD48L2c+PCEtLWxpbmsgU2NoZWR1bGVkIHRvIENhbmNlbGVkLS0+PGcgY2xhc3M9ImxpbmsiIGRhdGEtZW50aXR5LTE9IlNjaGVkdWxlZCIgZGF0YS1lbnRpdHktMj0iQ2FuY2VsZWQiIGRhdGEtc291cmNlLWxpbmU9IjE2IiBkYXRhLXVpZD0ibG5rMTAiIGlkPSJsaW5rX1NjaGVkdWxlZF9DYW5jZWxlZCI+PHBhdGggZD0iTTEwNi40MywzODcuMDcgQzEyOC4zOCw0MDAuNjEgMTU2LjUxLDQxNy42MiAxODIsNDMyIEMxOTkuOTQsNDQyLjEyIDIxNC42MDQ3LDQ0OS45ODU4IDIzMi4xNzQ3LDQ1OS4xMDU4IiBmaWxsPSJub25lIiBpZD0iU2NoZWR1bGVkLXRvLUNhbmNlbGVkIiBzdHlsZT0ic3Ryb2tlOiMxODE4MTg7c3Ryb2tlLXdpZHRoOjE7Ii8+PHBvbHlnb24gZmlsbD0iIzE4MTgxOCIgcG9pbnRzPSIyMzcuNSw0NjEuODcsMjMxLjM1NDgsNDU0LjE3MzUsMjMzLjA2MjIsNDU5LjU2NjUsMjI3LjY2OTIsNDYxLjI3MzksMjM3LjUsNDYxLjg3IiBzdHlsZT0ic3Ryb2tlOiMxODE4MTg7c3Ryb2tlLXdpZHRoOjE7Ii8+PHRleHQgZmlsbD0iIzAwMDAwMCIgZm9udC1mYW1pbHk9InNhbnMtc2VyaWYiIGZvbnQtc2l6ZT0iMTMiIGxlbmd0aEFkanVzdD0ic3BhY2luZyIgdGV4dExlbmd0aD0iOTEiIHg9IjE4MyIgeT0iNDMwLjI4OTEiPkNhbmNlbCBSZXF1ZXN0PC90ZXh0PjwvZz48IS0tbGluayBQZW5kaW5nIHRvIENhbmNlbGVkLS0+PGcgY2xhc3M9ImxpbmsiIGRhdGEtZW50aXR5LTE9IlBlbmRpbmciIGRhdGEtZW50aXR5LTI9IkNhbmNlbGVkIiBkYXRhLXNvdXJjZS1saW5lPSIxNyIgZGF0YS11aWQ9ImxuazExIiBpZD0ibGlua19QZW5kaW5nX0NhbmNlbGVkIj48cGF0aCBkPSJNMzI1LjYsMjYyLjIzIEMzMTcsMzA5LjY0IDI5OS4xMDE2LDQwOC4yNzY1IDI5MC40ODE2LDQ1NS43NjY1IiBmaWxsPSJub25lIiBpZD0iUGVuZGluZy10by1DYW5jZWxlZCIgc3R5bGU9InN0cm9rZTojMTgxODE4O3N0cm9rZS13aWR0aDoxOyIvPjxwb2x5Z29uIGZpbGw9IiMxODE4MTgiIHBvaW50cz0iMjg5LjQxLDQ2MS42NywyOTQuOTUzLDQ1My41MjkxLDI5MC4zMDMsNDU2Ljc1MDQsMjg3LjA4MTcsNDUyLjEwMDMsMjg5LjQxLDQ2MS42NyIgc3R5bGU9InN0cm9rZTojMTgxODE4O3N0cm9rZS13aWR0aDoxOyIvPjx0ZXh0IGZpbGw9IiMwMDAwMDAiIGZvbnQtZmFtaWx5PSJzYW5zLXNlcmlmIiBmb250LXNpemU9IjEzIiBsZW5ndGhBZGp1c3Q9InNwYWNpbmciIHRleHRMZW5ndGg9IjkxIiB4PSIzMTMiIHk9IjM2Ny43ODkxIj5DYW5jZWwgUmVxdWVzdDwvdGV4dD48L2c+PCEtLWxpbmsgUmVzY2hlZHVsaW5nIHRvIENhbmNlbGVkLS0+PGcgY2xhc3M9ImxpbmsiIGRhdGEtZW50aXR5LTE9IlJlc2NoZWR1bGluZyIgZGF0YS1lbnRpdHktMj0iQ2FuY2VsZWQiIGRhdGEtc291cmNlLWxpbmU9IjE4IiBkYXRhLXVpZD0ibG5rMTIiIGlkPSJsaW5rX1Jlc2NoZWR1bGluZ19DYW5jZWxlZCI+PHBhdGggZD0iTTQ2Ni44OSwzODcuMDEgQzQyNy4yLDQwOC42MSAzNzQuNDI5OCw0MzcuMzIxMyAzMzQuNjU5OCw0NTguOTcxMyIgZmlsbD0ibm9uZSIgaWQ9IlJlc2NoZWR1bGluZy10by1DYW5jZWxlZCIgc3R5bGU9InN0cm9rZTojMTgxODE4O3N0cm9rZS13aWR0aDoxOyIvPjxwb2x5Z29uIGZpbGw9IiMxODE4MTgiIHBvaW50cz0iMzI5LjM5LDQ2MS44NCwzMzkuMjA3MSw0NjEuMDUsMzMzLjc4MTUsNDU5LjQ0OTQsMzM1LjM4MjEsNDU0LjAyMzcsMzI5LjM5LDQ2MS44NCIgc3R5bGU9InN0cm9rZTojMTgxODE4O3N0cm9rZS13aWR0aDoxOyIvPjx0ZXh0IGZpbGw9IiMwMDAwMDAiIGZvbnQtZmFtaWx5PSJzYW5zLXNlcmlmIiBmb250LXNpemU9IjEzIiBsZW5ndGhBZGp1c3Q9InNwYWNpbmciIHRleHRMZW5ndGg9IjkxIiB4PSI0MTMiIHk9IjQzMC4yODkxIj5DYW5jZWwgUmVxdWVzdDwvdGV4dD48L2c+PCEtLWxpbmsgQ29tcGxldGVkIHRvICplbmQqLS0+PGcgY2xhc3M9ImxpbmsiIGRhdGEtZW50aXR5LTE9IkNvbXBsZXRlZCIgZGF0YS1lbnRpdHktMj0iKmVuZCoiIGRhdGEtc291cmNlLWxpbmU9IjE5IiBkYXRhLXVpZD0ibG5rMTQiIGlkPSJsaW5rX0NvbXBsZXRlZF8qZW5kKiI+PHBhdGggZD0iTTE1MS41MSw2MzcuNDYgQzE2Ni4xNSw2NTcuOTIgMTgyLjY3OTIsNjgxIDE5Mi41MjkyLDY5NC43NyIgZmlsbD0ibm9uZSIgaWQ9IkNvbXBsZXRlZC10by0qZW5kKiIgc3R5bGU9InN0cm9rZTojMTgxODE4O3N0cm9rZS13aWR0aDoxOyIvPjxwb2x5Z29uIGZpbGw9IiMxODE4MTgiIHBvaW50cz0iMTk2LjAyLDY5OS42NSwxOTQuMDM3Miw2OTAuMDAyOCwxOTMuMTExLDY5NS41ODMzLDE4Ny41MzA1LDY5NC42NTcyLDE5Ni4wMiw2OTkuNjUiIHN0eWxlPSJzdHJva2U6IzE4MTgxODtzdHJva2Utd2lkdGg6MTsiLz48L2c+PCEtLWxpbmsgQ2FuY2VsZWQgdG8gKmVuZCotLT48ZyBjbGFzcz0ibGluayIgZGF0YS1lbnRpdHktMT0iQ2FuY2VsZWQiIGRhdGEtZW50aXR5LTI9IiplbmQqIiBkYXRhLXNvdXJjZS1saW5lPSIyMCIgZGF0YS11aWQ9ImxuazE1IiBpZD0ibGlua19DYW5jZWxlZF8qZW5kKiI+PHBhdGggZD0iTTI3NS44LDUxMi4zOCBDMjU3LjY1LDU2MC40OSAyMjAuMDQ2OCw2NjAuMTU1OCAyMDcuNzk2OCw2OTIuNjQ1OCIgZmlsbD0ibm9uZSIgaWQ9IkNhbmNlbGVkLXRvLSplbmQqIiBzdHlsZT0ic3Ryb2tlOiMxODE4MTg7c3Ryb2tlLXdpZHRoOjE7Ii8+PHBvbHlnb24gZmlsbD0iIzE4MTgxOCIgcG9pbnRzPSIyMDUuNjgsNjk4LjI2LDIxMi41OTgsNjkxLjI0OTksMjA3LjQ0NCw2OTMuNTgxNSwyMDUuMTEyNCw2ODguNDI3NSwyMDUuNjgsNjk4LjI2IiBzdHlsZT0ic3Ryb2tlOiMxODE4MTg7c3Ryb2tlLXdpZHRoOjE7Ii8+PC9nPjwhLS1TUkM9W1RQOG5SdUNtNDhMdFZpS2ZPd01lVXVUQWc3SmVHNWoxRGlKV2NhalkxVXBLRmdBY2x4dmRtMFJRUGhpeHRjVV9VeVFIODhIRFBpTVVEWTBTMzFLeW1CQ2NVdUx4VUQ2QWI2WkxEcUExZHBxd0lqcDhsQURrYjN1Q3I1R2xrOThkMzV5S2VHajRXS3VVaVVkUlcycTcyX1JMYURmVnVTcVVYRVFCUlUzQktPcEQwQ1VFb1NtbWJYbHNRWXBpTDhTMUlJTWYybXh3aUdwWWRITm8xM2FZeVRyMV9NSXdTdWlxTkgweFItckI0TEVmYktUX0kyUDhINFhlWVM1S1E2UWF1NU91ZHZ1cGxQTVNIYkJUclIzVEZldlA5c0ZZbGZ6SkJGa0Zaa2NHVUZaV0hTa3JneEhqVUktOVB0UFBHcWg0R2FIbE5VLUx4TFJXaHgyaHFkSXkyNGhraUd1NWdvSm9YYXNvYWFVdDNFUWN5US1KOEdkTGtjSnN1cUtudjlBNGZQWmxERlFBTFFoeVptSjktZm41WmNGdlJuUXRMTl9TdHZSRVhob0V0b1E5c2NkbTBtMDBdLS0+PC9nPjwvc3ZnPg==;" vertex="1" parent="1">
            <mxGeometry x="34" y="1216" width="781.4" height="867.42" as="geometry" />
          </mxCell>
        </UserObject>
        <UserObject label="" plantUmlData="{&#xa;  &quot;data&quot;: &quot;@startuml\n|User|\nstart\n:Enter Meeting Details;\n|System|\n:Check Availability;\nfork\n  :Send Invite to Attendee 1;\nfork again\n  :Send Invite to Attendee 2;\nend fork\n|User|\n:Wait for Responses;\n|System|\nif (All Accepted?) then ([yes])\n  :Confirm Meeting;\nelse ([no])\n  :Reschedule Meeting;\n  :Update Details;\n  detach\nendif\n|Database|\n:Update Calendar;\n|Notification Service|\n:Send Notifications;\nstop\n@enduml&quot;,&#xa;  &quot;format&quot;: &quot;svg&quot;&#xa;}" id="S-Q9WKFuRo85aY7dy_94-3">
          <mxCell style="shape=image;noLabel=1;verticalAlign=top;aspect=fixed;imageAspect=0;image=data:image/svg+xml,PHN2ZyB4bWxucz0iaHR0cDovL3d3dy53My5vcmcvMjAwMC9zdmciIHhtbG5zOnhsaW5rPSJodHRwOi8vd3d3LnczLm9yZy8xOTk5L3hsaW5rIiBjb250ZW50U3R5bGVUeXBlPSJ0ZXh0L2NzcyIgZGF0YS1kaWFncmFtLXR5cGU9IkFDVElWSVRZIiBoZWlnaHQ9IjYxOHB4IiBwcmVzZXJ2ZUFzcGVjdFJhdGlvPSJub25lIiBzdHlsZT0id2lkdGg6OTA0cHg7aGVpZ2h0OjYxOHB4O2JhY2tncm91bmQ6I0ZGRkZGRjsiIHZlcnNpb249IjEuMSIgdmlld0JveD0iMCAwIDkwNCA2MTgiIHdpZHRoPSI5MDRweCIgem9vbUFuZFBhbj0ibWFnbmlmeSI+PGRlZnMvPjxnPjxyZWN0IGZpbGw9Im5vbmUiIGhlaWdodD0iMTkuMjY1NiIgc3R5bGU9InN0cm9rZTpub25lO3N0cm9rZS13aWR0aDoxOyIgd2lkdGg9Ijg3MS41IiB4PSIxNSIgeT0iMTEiLz48ZWxsaXBzZSBjeD0iOTQiIGN5PSI0NS4yNjU2IiBmaWxsPSIjMjIyMjIyIiByeD0iMTAiIHJ5PSIxMCIgc3R5bGU9InN0cm9rZTojMjIyMjIyO3N0cm9rZS13aWR0aDoxOyIvPjxyZWN0IGZpbGw9IiNGMUYxRjEiIGhlaWdodD0iMzIuODQzOCIgcng9IjEyLjUiIHJ5PSIxMi41IiBzdHlsZT0ic3Ryb2tlOiMxODE4MTg7c3Ryb2tlLXdpZHRoOjAuNTsiIHdpZHRoPSIxNDYiIHg9IjIxIiB5PSI3NS4yNjU2Ii8+PHRleHQgZmlsbD0iIzAwMDAwMCIgZm9udC1mYW1pbHk9InNhbnMtc2VyaWYiIGZvbnQtc2l6ZT0iMTIiIGxlbmd0aEFkanVzdD0ic3BhY2luZyIgdGV4dExlbmd0aD0iMTI2IiB4PSIzMSIgeT0iOTYuNjA5NCI+RW50ZXIgTWVldGluZyBEZXRhaWxzPC90ZXh0PjxyZWN0IGZpbGw9IiNGMUYxRjEiIGhlaWdodD0iMzIuODQzOCIgcng9IjEyLjUiIHJ5PSIxMi41IiBzdHlsZT0ic3Ryb2tlOiMxODE4MTg7c3Ryb2tlLXdpZHRoOjAuNTsiIHdpZHRoPSIxMjgiIHg9IjMwIiB5PSIyODUuNzk2OSIvPjx0ZXh0IGZpbGw9IiMwMDAwMDAiIGZvbnQtZmFtaWx5PSJzYW5zLXNlcmlmIiBmb250LXNpemU9IjEyIiBsZW5ndGhBZGp1c3Q9InNwYWNpbmciIHRleHRMZW5ndGg9IjEwOCIgeD0iNDAiIHk9IjMwNy4xNDA2Ij5XYWl0IGZvciBSZXNwb25zZXM8L3RleHQ+PGxpbmUgc3R5bGU9InN0cm9rZTojMDAwMDAwO3N0cm9rZS13aWR0aDoxLjU7IiB4MT0iMTUiIHgyPSIxNSIgeTE9IjExIiB5Mj0iNjA2LjAxNTYiLz48cmVjdCBmaWxsPSIjRjFGMUYxIiBoZWlnaHQ9IjMyLjg0MzgiIHJ4PSIxMi41IiByeT0iMTIuNSIgc3R5bGU9InN0cm9rZTojMTgxODE4O3N0cm9rZS13aWR0aDowLjU7IiB3aWR0aD0iMTI4IiB4PSIzMDkiIHk9IjEyOC4xMDk0Ii8+PHRleHQgZmlsbD0iIzAwMDAwMCIgZm9udC1mYW1pbHk9InNhbnMtc2VyaWYiIGZvbnQtc2l6ZT0iMTIiIGxlbmd0aEFkanVzdD0ic3BhY2luZyIgdGV4dExlbmd0aD0iMTA4IiB4PSIzMTkiIHk9IjE0OS40NTMxIj5DaGVjayBBdmFpbGFiaWxpdHk8L3RleHQ+PHJlY3QgZmlsbD0iIzU1NTU1NSIgaGVpZ2h0PSI2IiByeD0iMi41IiByeT0iMi41IiBzdHlsZT0ic3Ryb2tlOiM1NTU1NTU7c3Ryb2tlLXdpZHRoOjE7IiB3aWR0aD0iMzkyIiB4PSIxNzciIHk9IjE4MC45NTMxIi8+PHJlY3QgZmlsbD0iI0YxRjFGMSIgaGVpZ2h0PSIzMi44NDM4IiByeD0iMTIuNSIgcnk9IjEyLjUiIHN0eWxlPSJzdHJva2U6IzE4MTgxODtzdHJva2Utd2lkdGg6MC41OyIgd2lkdGg9IjE3MCIgeD0iMTg5IiB5PSIyMDYuOTUzMSIvPjx0ZXh0IGZpbGw9IiMwMDAwMDAiIGZvbnQtZmFtaWx5PSJzYW5zLXNlcmlmIiBmb250LXNpemU9IjEyIiBsZW5ndGhBZGp1c3Q9InNwYWNpbmciIHRleHRMZW5ndGg9IjE1MCIgeD0iMTk5IiB5PSIyMjguMjk2OSI+U2VuZCBJbnZpdGUgdG8gQXR0ZW5kZWUgMTwvdGV4dD48cmVjdCBmaWxsPSIjRjFGMUYxIiBoZWlnaHQ9IjMyLjg0MzgiIHJ4PSIxMi41IiByeT0iMTIuNSIgc3R5bGU9InN0cm9rZTojMTgxODE4O3N0cm9rZS13aWR0aDowLjU7IiB3aWR0aD0iMTcwIiB4PSIzODciIHk9IjIwNi45NTMxIi8+PHRleHQgZmlsbD0iIzAwMDAwMCIgZm9udC1mYW1pbHk9InNhbnMtc2VyaWYiIGZvbnQtc2l6ZT0iMTIiIGxlbmd0aEFkanVzdD0ic3BhY2luZyIgdGV4dExlbmd0aD0iMTUwIiB4PSIzOTciIHk9IjIyOC4yOTY5Ij5TZW5kIEludml0ZSB0byBBdHRlbmRlZSAyPC90ZXh0PjxyZWN0IGZpbGw9IiM1NTU1NTUiIGhlaWdodD0iNiIgcng9IjIuNSIgcnk9IjIuNSIgc3R5bGU9InN0cm9rZTojNTU1NTU1O3N0cm9rZS13aWR0aDoxOyIgd2lkdGg9IjM5MiIgeD0iMTc3IiB5PSIyNTkuNzk2OSIvPjxwb2x5Z29uIGZpbGw9IiNGMUYxRjEiIHBvaW50cz0iMzM3LjI1LDMzOC42NDA2LDQwOC43NSwzMzguNjQwNiw0MjAuNzUsMzUwLjY0MDYsNDA4Ljc1LDM2Mi42NDA2LDMzNy4yNSwzNjIuNjQwNiwzMjUuMjUsMzUwLjY0MDYsMzM3LjI1LDMzOC42NDA2IiBzdHlsZT0ic3Ryb2tlOiMxODE4MTg7c3Ryb2tlLXdpZHRoOjAuNTsiLz48dGV4dCBmaWxsPSIjMDAwMDAwIiBmb250LWZhbWlseT0ic2Fucy1zZXJpZiIgZm9udC1zaXplPSIxMSIgbGVuZ3RoQWRqdXN0PSJzcGFjaW5nIiB0ZXh0TGVuZ3RoPSI3MS41IiB4PSIzMzcuMjUiIHk9IjM1NS4xNTIzIj5BbGwgQWNjZXB0ZWQ/PC90ZXh0Pjx0ZXh0IGZpbGw9IiMwMDAwMDAiIGZvbnQtZmFtaWx5PSJzYW5zLXNlcmlmIiBmb250LXNpemU9IjExIiBsZW5ndGhBZGp1c3Q9InNwYWNpbmciIHRleHRMZW5ndGg9IjI3LjUiIHg9IjI5Ny43NSIgeT0iMzQ5LjI2NTYiPlt5ZXNdPC90ZXh0Pjx0ZXh0IGZpbGw9IiMwMDAwMDAiIGZvbnQtZmFtaWx5PSJzYW5zLXNlcmlmIiBmb250LXNpemU9IjExIiBsZW5ndGhBZGp1c3Q9InNwYWNpbmciIHRleHRMZW5ndGg9IjIyIiB4PSI0MjAuNzUiIHk9IjM0OS4yNjU2Ij5bbm9dPC90ZXh0PjxyZWN0IGZpbGw9IiNGMUYxRjEiIGhlaWdodD0iMzIuODQzOCIgcng9IjEyLjUiIHJ5PSIxMi41IiBzdHlsZT0ic3Ryb2tlOiMxODE4MTg7c3Ryb2tlLXdpZHRoOjAuNTsiIHdpZHRoPSIxMTAiIHg9IjI0OC41IiB5PSIzNzIuNjQwNiIvPjx0ZXh0IGZpbGw9IiMwMDAwMDAiIGZvbnQtZmFtaWx5PSJzYW5zLXNlcmlmIiBmb250LXNpemU9IjEyIiBsZW5ndGhBZGp1c3Q9InNwYWNpbmciIHRleHRMZW5ndGg9IjkwIiB4PSIyNTguNSIgeT0iMzkzLjk4NDQiPkNvbmZpcm0gTWVldGluZzwvdGV4dD48cmVjdCBmaWxsPSIjRjFGMUYxIiBoZWlnaHQ9IjMyLjg0MzgiIHJ4PSIxMi41IiByeT0iMTIuNSIgc3R5bGU9InN0cm9rZTojMTgxODE4O3N0cm9rZS13aWR0aDowLjU7IiB3aWR0aD0iMTI4IiB4PSIzNzguNSIgeT0iMzcyLjY0MDYiLz48dGV4dCBmaWxsPSIjMDAwMDAwIiBmb250LWZhbWlseT0ic2Fucy1zZXJpZiIgZm9udC1zaXplPSIxMiIgbGVuZ3RoQWRqdXN0PSJzcGFjaW5nIiB0ZXh0TGVuZ3RoPSIxMDgiIHg9IjM4OC41IiB5PSIzOTMuOTg0NCI+UmVzY2hlZHVsZSBNZWV0aW5nPC90ZXh0PjxyZWN0IGZpbGw9IiNGMUYxRjEiIGhlaWdodD0iMzIuODQzOCIgcng9IjEyLjUiIHJ5PSIxMi41IiBzdHlsZT0ic3Ryb2tlOiMxODE4MTg7c3Ryb2tlLXdpZHRoOjAuNTsiIHdpZHRoPSIxMDQiIHg9IjM5MC41IiB5PSI0MjUuNDg0NCIvPjx0ZXh0IGZpbGw9IiMwMDAwMDAiIGZvbnQtZmFtaWx5PSJzYW5zLXNlcmlmIiBmb250LXNpemU9IjEyIiBsZW5ndGhBZGp1c3Q9InNwYWNpbmciIHRleHRMZW5ndGg9Ijg0IiB4PSI0MDAuNSIgeT0iNDQ2LjgyODEiPlVwZGF0ZSBEZXRhaWxzPC90ZXh0PjxsaW5lIHN0eWxlPSJzdHJva2U6IzAwMDAwMDtzdHJva2Utd2lkdGg6MS41OyIgeDE9IjE3MSIgeDI9IjE3MSIgeTE9IjExIiB5Mj0iNjA2LjAxNTYiLz48cmVjdCBmaWxsPSIjRjFGMUYxIiBoZWlnaHQ9IjMyLjg0MzgiIHJ4PSIxMi41IiByeT0iMTIuNSIgc3R5bGU9InN0cm9rZTojMTgxODE4O3N0cm9rZS13aWR0aDowLjU7IiB3aWR0aD0iMTEwIiB4PSI1NzkiIHk9IjQ3OC4zMjgxIi8+PHRleHQgZmlsbD0iIzAwMDAwMCIgZm9udC1mYW1pbHk9InNhbnMtc2VyaWYiIGZvbnQtc2l6ZT0iMTIiIGxlbmd0aEFkanVzdD0ic3BhY2luZyIgdGV4dExlbmd0aD0iOTAiIHg9IjU4OSIgeT0iNDk5LjY3MTkiPlVwZGF0ZSBDYWxlbmRhcjwvdGV4dD48bGluZSBzdHlsZT0ic3Ryb2tlOiMwMDAwMDA7c3Ryb2tlLXdpZHRoOjEuNTsiIHgxPSI1NzMiIHgyPSI1NzMiIHkxPSIxMSIgeTI9IjYwNi4wMTU2Ii8+PHJlY3QgZmlsbD0iI0YxRjFGMSIgaGVpZ2h0PSIzMi44NDM4IiByeD0iMTIuNSIgcnk9IjEyLjUiIHN0eWxlPSJzdHJva2U6IzE4MTgxODtzdHJva2Utd2lkdGg6MC41OyIgd2lkdGg9IjEyOCIgeD0iNzI1IiB5PSI1MzEuMTcxOSIvPjx0ZXh0IGZpbGw9IiMwMDAwMDAiIGZvbnQtZmFtaWx5PSJzYW5zLXNlcmlmIiBmb250LXNpemU9IjEyIiBsZW5ndGhBZGp1c3Q9InNwYWNpbmciIHRleHRMZW5ndGg9IjEwOCIgeD0iNzM1IiB5PSI1NTIuNTE1NiI+U2VuZCBOb3RpZmljYXRpb25zPC90ZXh0PjxlbGxpcHNlIGN4PSI3ODkiIGN5PSI1OTUuMDE1NiIgZmlsbD0ibm9uZSIgcng9IjExIiByeT0iMTEiIHN0eWxlPSJzdHJva2U6IzIyMjIyMjtzdHJva2Utd2lkdGg6MTsiLz48ZWxsaXBzZSBjeD0iNzg5IiBjeT0iNTk1LjAxNTYiIGZpbGw9IiMyMjIyMjIiIHJ4PSI2IiByeT0iNiIgc3R5bGU9InN0cm9rZTojMjIyMjIyO3N0cm9rZS13aWR0aDoxOyIvPjxsaW5lIHN0eWxlPSJzdHJva2U6IzAwMDAwMDtzdHJva2Utd2lkdGg6MS41OyIgeDE9IjY5MyIgeDI9IjY5MyIgeTE9IjExIiB5Mj0iNjA2LjAxNTYiLz48bGluZSBzdHlsZT0ic3Ryb2tlOiMwMDAwMDA7c3Ryb2tlLXdpZHRoOjEuNTsiIHgxPSI4ODMiIHgyPSI4ODMiIHkxPSIxMSIgeTI9IjYwNi4wMTU2Ii8+PGxpbmUgc3R5bGU9InN0cm9rZTojMTgxODE4O3N0cm9rZS13aWR0aDoxOyIgeDE9Ijk0IiB4Mj0iOTQiIHkxPSI1NS4yNjU2IiB5Mj0iNzUuMjY1NiIvPjxwb2x5Z29uIGZpbGw9IiMxODE4MTgiIHBvaW50cz0iOTAsNjUuMjY1Niw5NCw3NS4yNjU2LDk4LDY1LjI2NTYsOTQsNjkuMjY1NiIgc3R5bGU9InN0cm9rZTojMTgxODE4O3N0cm9rZS13aWR0aDoxOyIvPjxsaW5lIHN0eWxlPSJzdHJva2U6IzE4MTgxODtzdHJva2Utd2lkdGg6MTsiIHgxPSIyNzQiIHgyPSIyNzQiIHkxPSIxODYuOTUzMSIgeTI9IjIwNi45NTMxIi8+PHBvbHlnb24gZmlsbD0iIzE4MTgxOCIgcG9pbnRzPSIyNzAsMTk2Ljk1MzEsMjc0LDIwNi45NTMxLDI3OCwxOTYuOTUzMSwyNzQsMjAwLjk1MzEiIHN0eWxlPSJzdHJva2U6IzE4MTgxODtzdHJva2Utd2lkdGg6MTsiLz48bGluZSBzdHlsZT0ic3Ryb2tlOiMxODE4MTg7c3Ryb2tlLXdpZHRoOjE7IiB4MT0iNDcyIiB4Mj0iNDcyIiB5MT0iMTg2Ljk1MzEiIHkyPSIyMDYuOTUzMSIvPjxwb2x5Z29uIGZpbGw9IiMxODE4MTgiIHBvaW50cz0iNDY4LDE5Ni45NTMxLDQ3MiwyMDYuOTUzMSw0NzYsMTk2Ljk1MzEsNDcyLDIwMC45NTMxIiBzdHlsZT0ic3Ryb2tlOiMxODE4MTg7c3Ryb2tlLXdpZHRoOjE7Ii8+PGxpbmUgc3R5bGU9InN0cm9rZTojMTgxODE4O3N0cm9rZS13aWR0aDoxOyIgeDE9IjI3NCIgeDI9IjI3NCIgeTE9IjIzOS43OTY5IiB5Mj0iMjU5Ljc5NjkiLz48cG9seWdvbiBmaWxsPSIjMTgxODE4IiBwb2ludHM9IjI3MCwyNDkuNzk2OSwyNzQsMjU5Ljc5NjksMjc4LDI0OS43OTY5LDI3NCwyNTMuNzk2OSIgc3R5bGU9InN0cm9rZTojMTgxODE4O3N0cm9rZS13aWR0aDoxOyIvPjxsaW5lIHN0eWxlPSJzdHJva2U6IzE4MTgxODtzdHJva2Utd2lkdGg6MTsiIHgxPSI0NzIiIHgyPSI0NzIiIHkxPSIyMzkuNzk2OSIgeTI9IjI1OS43OTY5Ii8+PHBvbHlnb24gZmlsbD0iIzE4MTgxOCIgcG9pbnRzPSI0NjgsMjQ5Ljc5NjksNDcyLDI1OS43OTY5LDQ3NiwyNDkuNzk2OSw0NzIsMjUzLjc5NjkiIHN0eWxlPSJzdHJva2U6IzE4MTgxODtzdHJva2Utd2lkdGg6MTsiLz48bGluZSBzdHlsZT0ic3Ryb2tlOiMxODE4MTg7c3Ryb2tlLXdpZHRoOjE7IiB4MT0iMzczIiB4Mj0iMzczIiB5MT0iMTYwLjk1MzEiIHkyPSIxODAuOTUzMSIvPjxwb2x5Z29uIGZpbGw9IiMxODE4MTgiIHBvaW50cz0iMzY5LDE3MC45NTMxLDM3MywxODAuOTUzMSwzNzcsMTcwLjk1MzEsMzczLDE3NC45NTMxIiBzdHlsZT0ic3Ryb2tlOiMxODE4MTg7c3Ryb2tlLXdpZHRoOjE7Ii8+PGxpbmUgc3R5bGU9InN0cm9rZTojMTgxODE4O3N0cm9rZS13aWR0aDoxOyIgeDE9IjQ0Mi41IiB4Mj0iNDQyLjUiIHkxPSI0MDUuNDg0NCIgeTI9IjQyNS40ODQ0Ii8+PHBvbHlnb24gZmlsbD0iIzE4MTgxOCIgcG9pbnRzPSI0MzguNSw0MTUuNDg0NCw0NDIuNSw0MjUuNDg0NCw0NDYuNSw0MTUuNDg0NCw0NDIuNSw0MTkuNDg0NCIgc3R5bGU9InN0cm9rZTojMTgxODE4O3N0cm9rZS13aWR0aDoxOyIvPjxsaW5lIHN0eWxlPSJzdHJva2U6IzE4MTgxODtzdHJva2Utd2lkdGg6MTsiIHgxPSIzMjUuMjUiIHgyPSIzMDMuNSIgeTE9IjM1MC42NDA2IiB5Mj0iMzUwLjY0MDYiLz48bGluZSBzdHlsZT0ic3Ryb2tlOiMxODE4MTg7c3Ryb2tlLXdpZHRoOjE7IiB4MT0iMzAzLjUiIHgyPSIzMDMuNSIgeTE9IjM1MC42NDA2IiB5Mj0iMzcyLjY0MDYiLz48cG9seWdvbiBmaWxsPSIjMTgxODE4IiBwb2ludHM9IjI5OS41LDM2Mi42NDA2LDMwMy41LDM3Mi42NDA2LDMwNy41LDM2Mi42NDA2LDMwMy41LDM2Ni42NDA2IiBzdHlsZT0ic3Ryb2tlOiMxODE4MTg7c3Ryb2tlLXdpZHRoOjE7Ii8+PGxpbmUgc3R5bGU9InN0cm9rZTojMTgxODE4O3N0cm9rZS13aWR0aDoxOyIgeDE9IjQyMC43NSIgeDI9IjQ0Mi41IiB5MT0iMzUwLjY0MDYiIHkyPSIzNTAuNjQwNiIvPjxsaW5lIHN0eWxlPSJzdHJva2U6IzE4MTgxODtzdHJva2Utd2lkdGg6MTsiIHgxPSI0NDIuNSIgeDI9IjQ0Mi41IiB5MT0iMzUwLjY0MDYiIHkyPSIzNzIuNjQwNiIvPjxwb2x5Z29uIGZpbGw9IiMxODE4MTgiIHBvaW50cz0iNDM4LjUsMzYyLjY0MDYsNDQyLjUsMzcyLjY0MDYsNDQ2LjUsMzYyLjY0MDYsNDQyLjUsMzY2LjY0MDYiIHN0eWxlPSJzdHJva2U6IzE4MTgxODtzdHJva2Utd2lkdGg6MTsiLz48bGluZSBzdHlsZT0ic3Ryb2tlOiMxODE4MTg7c3Ryb2tlLXdpZHRoOjE7IiB4MT0iMzAzLjUiIHgyPSIzMDMuNSIgeTE9IjQwNS40ODQ0IiB5Mj0iNDYzLjMyODEiLz48bGluZSBzdHlsZT0ic3Ryb2tlOiMxODE4MTg7c3Ryb2tlLXdpZHRoOjE7IiB4MT0iMzAzLjUiIHgyPSI2MzQiIHkxPSI0NjMuMzI4MSIgeTI9IjQ2My4zMjgxIi8+PGxpbmUgc3R5bGU9InN0cm9rZTojMTgxODE4O3N0cm9rZS13aWR0aDoxOyIgeDE9IjYzNCIgeDI9IjYzNCIgeTE9IjQ2My4zMjgxIiB5Mj0iNDc4LjMyODEiLz48cG9seWdvbiBmaWxsPSIjMTgxODE4IiBwb2ludHM9IjYzMCw0NjguMzI4MSw2MzQsNDc4LjMyODEsNjM4LDQ2OC4zMjgxLDYzNCw0NzIuMzI4MSIgc3R5bGU9InN0cm9rZTojMTgxODE4O3N0cm9rZS13aWR0aDoxOyIvPjxsaW5lIHN0eWxlPSJzdHJva2U6IzE4MTgxODtzdHJva2Utd2lkdGg6MTsiIHgxPSI3ODkiIHgyPSI3ODkiIHkxPSI1NjQuMDE1NiIgeTI9IjU4NC4wMTU2Ii8+PHBvbHlnb24gZmlsbD0iIzE4MTgxOCIgcG9pbnRzPSI3ODUsNTc0LjAxNTYsNzg5LDU4NC4wMTU2LDc5Myw1NzQuMDE1Niw3ODksNTc4LjAxNTYiIHN0eWxlPSJzdHJva2U6IzE4MTgxODtzdHJva2Utd2lkdGg6MTsiLz48bGluZSBzdHlsZT0ic3Ryb2tlOiMxODE4MTg7c3Ryb2tlLXdpZHRoOjE7IiB4MT0iOTQiIHgyPSI5NCIgeTE9IjEwOC4xMDk0IiB5Mj0iMTEzLjEwOTQiLz48bGluZSBzdHlsZT0ic3Ryb2tlOiMxODE4MTg7c3Ryb2tlLXdpZHRoOjE7IiB4MT0iOTQiIHgyPSIzNzMiIHkxPSIxMTMuMTA5NCIgeTI9IjExMy4xMDk0Ii8+PGxpbmUgc3R5bGU9InN0cm9rZTojMTgxODE4O3N0cm9rZS13aWR0aDoxOyIgeDE9IjM3MyIgeDI9IjM3MyIgeTE9IjExMy4xMDk0IiB5Mj0iMTI4LjEwOTQiLz48cG9seWdvbiBmaWxsPSIjMTgxODE4IiBwb2ludHM9IjM2OSwxMTguMTA5NCwzNzMsMTI4LjEwOTQsMzc3LDExOC4xMDk0LDM3MywxMjIuMTA5NCIgc3R5bGU9InN0cm9rZTojMTgxODE4O3N0cm9rZS13aWR0aDoxOyIvPjxsaW5lIHN0eWxlPSJzdHJva2U6IzE4MTgxODtzdHJva2Utd2lkdGg6MTsiIHgxPSIzNzMiIHgyPSIzNzMiIHkxPSIyNjUuNzk2OSIgeTI9IjI3MC43OTY5Ii8+PGxpbmUgc3R5bGU9InN0cm9rZTojMTgxODE4O3N0cm9rZS13aWR0aDoxOyIgeDE9IjM3MyIgeDI9Ijk0IiB5MT0iMjcwLjc5NjkiIHkyPSIyNzAuNzk2OSIvPjxsaW5lIHN0eWxlPSJzdHJva2U6IzE4MTgxODtzdHJva2Utd2lkdGg6MTsiIHgxPSI5NCIgeDI9Ijk0IiB5MT0iMjcwLjc5NjkiIHkyPSIyODUuNzk2OSIvPjxwb2x5Z29uIGZpbGw9IiMxODE4MTgiIHBvaW50cz0iOTAsMjc1Ljc5NjksOTQsMjg1Ljc5NjksOTgsMjc1Ljc5NjksOTQsMjc5Ljc5NjkiIHN0eWxlPSJzdHJva2U6IzE4MTgxODtzdHJva2Utd2lkdGg6MTsiLz48bGluZSBzdHlsZT0ic3Ryb2tlOiMxODE4MTg7c3Ryb2tlLXdpZHRoOjE7IiB4MT0iOTQiIHgyPSI5NCIgeTE9IjMxOC42NDA2IiB5Mj0iMzIzLjY0MDYiLz48bGluZSBzdHlsZT0ic3Ryb2tlOiMxODE4MTg7c3Ryb2tlLXdpZHRoOjE7IiB4MT0iOTQiIHgyPSIzNzMiIHkxPSIzMjMuNjQwNiIgeTI9IjMyMy42NDA2Ii8+PGxpbmUgc3R5bGU9InN0cm9rZTojMTgxODE4O3N0cm9rZS13aWR0aDoxOyIgeDE9IjM3MyIgeDI9IjM3MyIgeTE9IjMyMy42NDA2IiB5Mj0iMzM4LjY0MDYiLz48cG9seWdvbiBmaWxsPSIjMTgxODE4IiBwb2ludHM9IjM2OSwzMjguNjQwNiwzNzMsMzM4LjY0MDYsMzc3LDMyOC42NDA2LDM3MywzMzIuNjQwNiIgc3R5bGU9InN0cm9rZTojMTgxODE4O3N0cm9rZS13aWR0aDoxOyIvPjxsaW5lIHN0eWxlPSJzdHJva2U6IzE4MTgxODtzdHJva2Utd2lkdGg6MTsiIHgxPSI2MzQiIHgyPSI2MzQiIHkxPSI1MTEuMTcxOSIgeTI9IjUxNi4xNzE5Ii8+PGxpbmUgc3R5bGU9InN0cm9rZTojMTgxODE4O3N0cm9rZS13aWR0aDoxOyIgeDE9IjYzNCIgeDI9Ijc4OSIgeTE9IjUxNi4xNzE5IiB5Mj0iNTE2LjE3MTkiLz48bGluZSBzdHlsZT0ic3Ryb2tlOiMxODE4MTg7c3Ryb2tlLXdpZHRoOjE7IiB4MT0iNzg5IiB4Mj0iNzg5IiB5MT0iNTE2LjE3MTkiIHkyPSI1MzEuMTcxOSIvPjxwb2x5Z29uIGZpbGw9IiMxODE4MTgiIHBvaW50cz0iNzg1LDUyMS4xNzE5LDc4OSw1MzEuMTcxOSw3OTMsNTIxLjE3MTksNzg5LDUyNS4xNzE5IiBzdHlsZT0ic3Ryb2tlOiMxODE4MTg7c3Ryb2tlLXdpZHRoOjE7Ii8+PHRleHQgZmlsbD0iIzAwMDAwMCIgZm9udC1mYW1pbHk9InNhbnMtc2VyaWYiIGZvbnQtc2l6ZT0iMTgiIGxlbmd0aEFkanVzdD0ic3BhY2luZyIgdGV4dExlbmd0aD0iMzYiIHg9Ijc1IiB5PSIyOC4wMTU2Ij5Vc2VyPC90ZXh0Pjx0ZXh0IGZpbGw9IiMwMDAwMDAiIGZvbnQtZmFtaWx5PSJzYW5zLXNlcmlmIiBmb250LXNpemU9IjE4IiBsZW5ndGhBZGp1c3Q9InNwYWNpbmciIHRleHRMZW5ndGg9IjU0IiB4PSIzNDUiIHk9IjI4LjAxNTYiPlN5c3RlbTwvdGV4dD48dGV4dCBmaWxsPSIjMDAwMDAwIiBmb250LWZhbWlseT0ic2Fucy1zZXJpZiIgZm9udC1zaXplPSIxOCIgbGVuZ3RoQWRqdXN0PSJzcGFjaW5nIiB0ZXh0TGVuZ3RoPSI3MiIgeD0iNTk3IiB5PSIyOC4wMTU2Ij5EYXRhYmFzZTwvdGV4dD48dGV4dCBmaWxsPSIjMDAwMDAwIiBmb250LWZhbWlseT0ic2Fucy1zZXJpZiIgZm9udC1zaXplPSIxOCIgbGVuZ3RoQWRqdXN0PSJzcGFjaW5nIiB0ZXh0TGVuZ3RoPSIxODAiIHg9IjY5OCIgeT0iMjguMDE1NiI+Tm90aWZpY2F0aW9uIFNlcnZpY2U8L3RleHQ+PCEtLVNSQz1bVlAyeFJpQ20zNEx0VkdON1A2bjdVb1dDZnFFN1RnV0hQMFd3QzM4VDRyNGFHczhENkQzN2J1aHhvREhEa0ZVMEY1SlU5dWhQOUM0ZWZkaHNHWDVVWU9KejZOT2FvMnhMOWRUQjRoZmNLeEtac0dpcWktUHVPaVVvcjZPOHlNODBnZXZ5M296LVBZNkcwOHM4MWFKbWkyQTBQc0pfN19YT2N6QlN2a05MZ3BlV0lxZFdkVDhLVkE5eDdIdldxcFc3WlJLcTJWTEZNdjJIRjZvRTJ3TUZSVGRMMVp6bWxGeFNmMWpTOFdMeU03aVRRcVZnRm50ejhIaGxmbnhMeGxTNzA3ZnpzaDQ4eWMzbzNXTEZjNFdEbHo0TWROT09MVXlqMjB6aUtKWHV3MlpFUjBqdUVfay1xeGI5bWxHNV0tLT48L2c+PC9zdmc+;" vertex="1" parent="1">
            <mxGeometry x="17" y="2471" width="816.23" height="558" as="geometry" />
          </mxCell>
        </UserObject>
        <UserObject label="" plantUmlData="{&#xa;  &quot;data&quot;: &quot;@startuml\ncomponent \&quot;User Interface\&quot; as UI {\n  [ICalendarSync] &lt;&lt;interface&gt;&gt;\n  [INotification] &lt;&lt;interface&gt;&gt;\n}\n\ncomponent \&quot;Calendar Management\&quot; as CM {\n  [Calendar Sync] --|&gt; [ICalendarSync]\n}\n\ncomponent \&quot;Notification Service\&quot; as NS {\n  [Email Alerts] --|&gt; [INotification]\n  [System Notifications] --|&gt; [INotification]\n}\n\ncomponent \&quot;Authentication Service\&quot; as Auth {\n  [Login/Logout]\n}\n\ncomponent \&quot;Database\&quot; as DB {\n  [Calendar Data]\n}\n\nUI --&gt; CM : requires\nUI --&gt; NS : requires\nCM --&gt; DB : reads/writes\nCM ..&gt; Auth : «uses»\nNS ..&gt; ICalendarSync : «requires»\n@enduml&quot;,&#xa;  &quot;format&quot;: &quot;svg&quot;&#xa;}" id="S-Q9WKFuRo85aY7dy_94-4">
          <mxCell style="shape=image;noLabel=1;verticalAlign=top;aspect=fixed;imageAspect=0;image=data:image/svg+xml,PHN2ZyB4bWxucz0iaHR0cDovL3d3dy53My5vcmcvMjAwMC9zdmciIHhtbG5zOnhsaW5rPSJodHRwOi8vd3d3LnczLm9yZy8xOTk5L3hsaW5rIiBjb250ZW50U3R5bGVUeXBlPSJ0ZXh0L2NzcyIgZGF0YS1kaWFncmFtLXR5cGU9IkRFU0NSSVBUSU9OIiBoZWlnaHQ9IjY1N3B4IiBwcmVzZXJ2ZUFzcGVjdFJhdGlvPSJub25lIiBzdHlsZT0id2lkdGg6NDQ0cHg7aGVpZ2h0OjY1N3B4O2JhY2tncm91bmQ6I0ZGRkZGRjsiIHZlcnNpb249IjEuMSIgdmlld0JveD0iMCAwIDQ0NCA2NTciIHdpZHRoPSI0NDRweCIgem9vbUFuZFBhbj0ibWFnbmlmeSI+PGRlZnMvPjxnPjwhLS1jbHVzdGVyIFVJLS0+PGcgY2xhc3M9ImNsdXN0ZXIiIGRhdGEtZW50aXR5PSJVSSIgZGF0YS1zb3VyY2UtbGluZT0iMSIgZGF0YS11aWQ9ImVudDAwMDIiIGlkPSJjbHVzdGVyX1VJIj48cmVjdCBmaWxsPSJub25lIiBoZWlnaHQ9IjEyNSIgcng9IjIuNSIgcnk9IjIuNSIgc3R5bGU9InN0cm9rZTojMTgxODE4O3N0cm9rZS13aWR0aDoxOyIgd2lkdGg9IjM2NSIgeD0iMTYuNjMxIiB5PSIxODAiLz48cmVjdCBmaWxsPSJub25lIiBoZWlnaHQ9IjEwIiBzdHlsZT0ic3Ryb2tlOiMxODE4MTg7c3Ryb2tlLXdpZHRoOjE7IiB3aWR0aD0iMTUiIHg9IjM2MS42MzEiIHk9IjE4NSIvPjxyZWN0IGZpbGw9Im5vbmUiIGhlaWdodD0iMiIgc3R5bGU9InN0cm9rZTojMTgxODE4O3N0cm9rZS13aWR0aDoxOyIgd2lkdGg9IjQiIHg9IjM1OS42MzEiIHk9IjE4NyIvPjxyZWN0IGZpbGw9Im5vbmUiIGhlaWdodD0iMiIgc3R5bGU9InN0cm9rZTojMTgxODE4O3N0cm9rZS13aWR0aDoxOyIgd2lkdGg9IjQiIHg9IjM1OS42MzEiIHk9IjE5MSIvPjx0ZXh0IGZpbGw9IiMwMDAwMDAiIGZvbnQtZmFtaWx5PSJzYW5zLXNlcmlmIiBmb250LXNpemU9IjE0IiBmb250LXdlaWdodD0iYm9sZCIgbGVuZ3RoQWRqdXN0PSJzcGFjaW5nIiB0ZXh0TGVuZ3RoPSI5OCIgeD0iMTUwLjEzMSIgeT0iMjA2LjIzNDQiPlVzZXIgSW50ZXJmYWNlPC90ZXh0PjwvZz48IS0tY2x1c3RlciBDTS0tPjxnIGNsYXNzPSJjbHVzdGVyIiBkYXRhLWVudGl0eT0iQ00iIGRhdGEtc291cmNlLWxpbmU9IjYiIGRhdGEtdWlkPSJlbnQwMDA1IiBpZD0iY2x1c3Rlcl9DTSI+PHJlY3QgZmlsbD0ibm9uZSIgaGVpZ2h0PSIxMTAiIHJ4PSIyLjUiIHJ5PSIyLjUiIHN0eWxlPSJzdHJva2U6IzE4MTgxODtzdHJva2Utd2lkdGg6MTsiIHdpZHRoPSIxOTkiIHg9IjE2LjYzMSIgeT0iMzY4Ii8+PHJlY3QgZmlsbD0ibm9uZSIgaGVpZ2h0PSIxMCIgc3R5bGU9InN0cm9rZTojMTgxODE4O3N0cm9rZS13aWR0aDoxOyIgd2lkdGg9IjE1IiB4PSIxOTUuNjMxIiB5PSIzNzMiLz48cmVjdCBmaWxsPSJub25lIiBoZWlnaHQ9IjIiIHN0eWxlPSJzdHJva2U6IzE4MTgxODtzdHJva2Utd2lkdGg6MTsiIHdpZHRoPSI0IiB4PSIxOTMuNjMxIiB5PSIzNzUiLz48cmVjdCBmaWxsPSJub25lIiBoZWlnaHQ9IjIiIHN0eWxlPSJzdHJva2U6IzE4MTgxODtzdHJva2Utd2lkdGg6MTsiIHdpZHRoPSI0IiB4PSIxOTMuNjMxIiB5PSIzNzkiLz48dGV4dCBmaWxsPSIjMDAwMDAwIiBmb250LWZhbWlseT0ic2Fucy1zZXJpZiIgZm9udC1zaXplPSIxNCIgZm9udC13ZWlnaHQ9ImJvbGQiIGxlbmd0aEFkanVzdD0ic3BhY2luZyIgdGV4dExlbmd0aD0iMTMzIiB4PSI0OS42MzEiIHk9IjM5NC4yMzQ0Ij5DYWxlbmRhciBNYW5hZ2VtZW50PC90ZXh0PjwvZz48IS0tY2x1c3RlciBOUy0tPjxnIGNsYXNzPSJjbHVzdGVyIiBkYXRhLWVudGl0eT0iTlMiIGRhdGEtc291cmNlLWxpbmU9IjEwIiBkYXRhLXVpZD0iZW50MDAwOCIgaWQ9ImNsdXN0ZXJfTlMiPjxyZWN0IGZpbGw9Im5vbmUiIGhlaWdodD0iMTEwIiByeD0iMi41IiByeT0iMi41IiBzdHlsZT0ic3Ryb2tlOiMxODE4MTg7c3Ryb2tlLXdpZHRoOjE7IiB3aWR0aD0iNDA2IiB4PSIyNC42MzEiIHk9IjciLz48cmVjdCBmaWxsPSJub25lIiBoZWlnaHQ9IjEwIiBzdHlsZT0ic3Ryb2tlOiMxODE4MTg7c3Ryb2tlLXdpZHRoOjE7IiB3aWR0aD0iMTUiIHg9IjQxMC42MzEiIHk9IjEyIi8+PHJlY3QgZmlsbD0ibm9uZSIgaGVpZ2h0PSIyIiBzdHlsZT0ic3Ryb2tlOiMxODE4MTg7c3Ryb2tlLXdpZHRoOjE7IiB3aWR0aD0iNCIgeD0iNDA4LjYzMSIgeT0iMTQiLz48cmVjdCBmaWxsPSJub25lIiBoZWlnaHQ9IjIiIHN0eWxlPSJzdHJva2U6IzE4MTgxODtzdHJva2Utd2lkdGg6MTsiIHdpZHRoPSI0IiB4PSI0MDguNjMxIiB5PSIxOCIvPjx0ZXh0IGZpbGw9IiMwMDAwMDAiIGZvbnQtZmFtaWx5PSJzYW5zLXNlcmlmIiBmb250LXNpemU9IjE0IiBmb250LXdlaWdodD0iYm9sZCIgbGVuZ3RoQWRqdXN0PSJzcGFjaW5nIiB0ZXh0TGVuZ3RoPSIxNDAiIHg9IjE1Ny42MzEiIHk9IjMzLjIzNDQiPk5vdGlmaWNhdGlvbiBTZXJ2aWNlPC90ZXh0PjwvZz48IS0tY2x1c3RlciBBdXRoLS0+PGcgY2xhc3M9ImNsdXN0ZXIiIGRhdGEtZW50aXR5PSJBdXRoIiBkYXRhLXNvdXJjZS1saW5lPSIxNSIgZGF0YS11aWQ9ImVudDAwMTMiIGlkPSJjbHVzdGVyX0F1dGgiPjxyZWN0IGZpbGw9Im5vbmUiIGhlaWdodD0iMTEwIiByeD0iMi41IiByeT0iMi41IiBzdHlsZT0ic3Ryb2tlOiMxODE4MTg7c3Ryb2tlLXdpZHRoOjE7IiB3aWR0aD0iMTkxIiB4PSI4LjYzMSIgeT0iNTQxIi8+PHJlY3QgZmlsbD0ibm9uZSIgaGVpZ2h0PSIxMCIgc3R5bGU9InN0cm9rZTojMTgxODE4O3N0cm9rZS13aWR0aDoxOyIgd2lkdGg9IjE1IiB4PSIxNzkuNjMxIiB5PSI1NDYiLz48cmVjdCBmaWxsPSJub25lIiBoZWlnaHQ9IjIiIHN0eWxlPSJzdHJva2U6IzE4MTgxODtzdHJva2Utd2lkdGg6MTsiIHdpZHRoPSI0IiB4PSIxNzcuNjMxIiB5PSI1NDgiLz48cmVjdCBmaWxsPSJub25lIiBoZWlnaHQ9IjIiIHN0eWxlPSJzdHJva2U6IzE4MTgxODtzdHJva2Utd2lkdGg6MTsiIHdpZHRoPSI0IiB4PSIxNzcuNjMxIiB5PSI1NTIiLz48dGV4dCBmaWxsPSIjMDAwMDAwIiBmb250LWZhbWlseT0ic2Fucy1zZXJpZiIgZm9udC1zaXplPSIxNCIgZm9udC13ZWlnaHQ9ImJvbGQiIGxlbmd0aEFkanVzdD0ic3BhY2luZyIgdGV4dExlbmd0aD0iMTU0IiB4PSIyNy4xMzEiIHk9IjU2Ny4yMzQ0Ij5BdXRoZW50aWNhdGlvbiBTZXJ2aWNlPC90ZXh0PjwvZz48IS0tY2x1c3RlciBEQi0tPjxnIGNsYXNzPSJjbHVzdGVyIiBkYXRhLWVudGl0eT0iREIiIGRhdGEtc291cmNlLWxpbmU9IjE5IiBkYXRhLXVpZD0iZW50MDAxNSIgaWQ9ImNsdXN0ZXJfREIiPjxyZWN0IGZpbGw9Im5vbmUiIGhlaWdodD0iMTEwIiByeD0iMi41IiByeT0iMi41IiBzdHlsZT0ic3Ryb2tlOiMxODE4MTg7c3Ryb2tlLXdpZHRoOjE7IiB3aWR0aD0iMTk5IiB4PSIyMzkuNjMxIiB5PSI1NDEiLz48cmVjdCBmaWxsPSJub25lIiBoZWlnaHQ9IjEwIiBzdHlsZT0ic3Ryb2tlOiMxODE4MTg7c3Ryb2tlLXdpZHRoOjE7IiB3aWR0aD0iMTUiIHg9IjQxOC42MzEiIHk9IjU0NiIvPjxyZWN0IGZpbGw9Im5vbmUiIGhlaWdodD0iMiIgc3R5bGU9InN0cm9rZTojMTgxODE4O3N0cm9rZS13aWR0aDoxOyIgd2lkdGg9IjQiIHg9IjQxNi42MzEiIHk9IjU0OCIvPjxyZWN0IGZpbGw9Im5vbmUiIGhlaWdodD0iMiIgc3R5bGU9InN0cm9rZTojMTgxODE4O3N0cm9rZS13aWR0aDoxOyIgd2lkdGg9IjQiIHg9IjQxNi42MzEiIHk9IjU1MiIvPjx0ZXh0IGZpbGw9IiMwMDAwMDAiIGZvbnQtZmFtaWx5PSJzYW5zLXNlcmlmIiBmb250LXNpemU9IjE0IiBmb250LXdlaWdodD0iYm9sZCIgbGVuZ3RoQWRqdXN0PSJzcGFjaW5nIiB0ZXh0TGVuZ3RoPSI1NiIgeD0iMzExLjEzMSIgeT0iNTY3LjIzNDQiPkRhdGFiYXNlPC90ZXh0PjwvZz48IS0tZW50aXR5IElDYWxlbmRhclN5bmMtLT48ZyBjbGFzcz0iZW50aXR5IiBkYXRhLWVudGl0eT0iSUNhbGVuZGFyU3luYyIgZGF0YS1zb3VyY2UtbGluZT0iMiIgZGF0YS11aWQ9ImVudDAwMDMiIGlkPSJlbnRpdHlfSUNhbGVuZGFyU3luYyI+PHJlY3QgZmlsbD0iI0YxRjFGMSIgaGVpZ2h0PSI1OS45Njg4IiByeD0iMi41IiByeT0iMi41IiBzdHlsZT0ic3Ryb2tlOiMxODE4MTg7c3Ryb2tlLXdpZHRoOjAuNTsiIHdpZHRoPSIxMzEiIHg9IjYwLjEzMSIgeT0iMjIxIi8+PHJlY3QgZmlsbD0iI0YxRjFGMSIgaGVpZ2h0PSIxMCIgc3R5bGU9InN0cm9rZTojMTgxODE4O3N0cm9rZS13aWR0aDowLjU7IiB3aWR0aD0iMTUiIHg9IjE3MS4xMzEiIHk9IjIyNiIvPjxyZWN0IGZpbGw9IiNGMUYxRjEiIGhlaWdodD0iMiIgc3R5bGU9InN0cm9rZTojMTgxODE4O3N0cm9rZS13aWR0aDowLjU7IiB3aWR0aD0iNCIgeD0iMTY5LjEzMSIgeT0iMjI4Ii8+PHJlY3QgZmlsbD0iI0YxRjFGMSIgaGVpZ2h0PSIyIiBzdHlsZT0ic3Ryb2tlOiMxODE4MTg7c3Ryb2tlLXdpZHRoOjAuNTsiIHdpZHRoPSI0IiB4PSIxNjkuMTMxIiB5PSIyMzIiLz48dGV4dCBmaWxsPSIjMDAwMDAwIiBmb250LWZhbWlseT0ic2Fucy1zZXJpZiIgZm9udC1zaXplPSIxNCIgZm9udC1zdHlsZT0iaXRhbGljIiBsZW5ndGhBZGp1c3Q9InNwYWNpbmciIHRleHRMZW5ndGg9Ijc3IiB4PSI4Mi4xMzEiIHk9IjI1NC4yMzQ0Ij4mIzE3MTtpbnRlcmZhY2UmIzE4Nzs8L3RleHQ+PHRleHQgZmlsbD0iIzAwMDAwMCIgZm9udC1mYW1pbHk9InNhbnMtc2VyaWYiIGZvbnQtc2l6ZT0iMTQiIGxlbmd0aEFkanVzdD0ic3BhY2luZyIgdGV4dExlbmd0aD0iOTEiIHg9Ijc1LjEzMSIgeT0iMjY5LjIxODgiPklDYWxlbmRhclN5bmM8L3RleHQ+PC9nPjwhLS1lbnRpdHkgSU5vdGlmaWNhdGlvbi0tPjxnIGNsYXNzPSJlbnRpdHkiIGRhdGEtZW50aXR5PSJJTm90aWZpY2F0aW9uIiBkYXRhLXNvdXJjZS1saW5lPSIzIiBkYXRhLXVpZD0iZW50MDAwNCIgaWQ9ImVudGl0eV9JTm90aWZpY2F0aW9uIj48cmVjdCBmaWxsPSIjRjFGMUYxIiBoZWlnaHQ9IjU5Ljk2ODgiIHJ4PSIyLjUiIHJ5PSIyLjUiIHN0eWxlPSJzdHJva2U6IzE4MTgxODtzdHJva2Utd2lkdGg6MC41OyIgd2lkdGg9IjEzMSIgeD0iMjI2LjEzMSIgeT0iMjIxIi8+PHJlY3QgZmlsbD0iI0YxRjFGMSIgaGVpZ2h0PSIxMCIgc3R5bGU9InN0cm9rZTojMTgxODE4O3N0cm9rZS13aWR0aDowLjU7IiB3aWR0aD0iMTUiIHg9IjMzNy4xMzEiIHk9IjIyNiIvPjxyZWN0IGZpbGw9IiNGMUYxRjEiIGhlaWdodD0iMiIgc3R5bGU9InN0cm9rZTojMTgxODE4O3N0cm9rZS13aWR0aDowLjU7IiB3aWR0aD0iNCIgeD0iMzM1LjEzMSIgeT0iMjI4Ii8+PHJlY3QgZmlsbD0iI0YxRjFGMSIgaGVpZ2h0PSIyIiBzdHlsZT0ic3Ryb2tlOiMxODE4MTg7c3Ryb2tlLXdpZHRoOjAuNTsiIHdpZHRoPSI0IiB4PSIzMzUuMTMxIiB5PSIyMzIiLz48dGV4dCBmaWxsPSIjMDAwMDAwIiBmb250LWZhbWlseT0ic2Fucy1zZXJpZiIgZm9udC1zaXplPSIxNCIgZm9udC1zdHlsZT0iaXRhbGljIiBsZW5ndGhBZGp1c3Q9InNwYWNpbmciIHRleHRMZW5ndGg9Ijc3IiB4PSIyNDguMTMxIiB5PSIyNTQuMjM0NCI+JiMxNzE7aW50ZXJmYWNlJiMxODc7PC90ZXh0Pjx0ZXh0IGZpbGw9IiMwMDAwMDAiIGZvbnQtZmFtaWx5PSJzYW5zLXNlcmlmIiBmb250LXNpemU9IjE0IiBsZW5ndGhBZGp1c3Q9InNwYWNpbmciIHRleHRMZW5ndGg9IjkxIiB4PSIyNDEuMTMxIiB5PSIyNjkuMjE4OCI+SU5vdGlmaWNhdGlvbjwvdGV4dD48L2c+PCEtLWVudGl0eSBDYWxlbmRhciBTeW5jLS0+PGcgY2xhc3M9ImVudGl0eSIgZGF0YS1lbnRpdHk9IkNhbGVuZGFyIFN5bmMiIGRhdGEtc291cmNlLWxpbmU9IjciIGRhdGEtdWlkPSJlbnQwMDA2IiBpZD0iZW50aXR5X0NhbGVuZGFyIFN5bmMiPjxyZWN0IGZpbGw9IiNGMUYxRjEiIGhlaWdodD0iNDQuOTg0NCIgcng9IjIuNSIgcnk9IjIuNSIgc3R5bGU9InN0cm9rZTojMTgxODE4O3N0cm9rZS13aWR0aDowLjU7IiB3aWR0aD0iMTMxIiB4PSI2MC4xMzEiIHk9IjQwOSIvPjxyZWN0IGZpbGw9IiNGMUYxRjEiIGhlaWdodD0iMTAiIHN0eWxlPSJzdHJva2U6IzE4MTgxODtzdHJva2Utd2lkdGg6MC41OyIgd2lkdGg9IjE1IiB4PSIxNzEuMTMxIiB5PSI0MTQiLz48cmVjdCBmaWxsPSIjRjFGMUYxIiBoZWlnaHQ9IjIiIHN0eWxlPSJzdHJva2U6IzE4MTgxODtzdHJva2Utd2lkdGg6MC41OyIgd2lkdGg9IjQiIHg9IjE2OS4xMzEiIHk9IjQxNiIvPjxyZWN0IGZpbGw9IiNGMUYxRjEiIGhlaWdodD0iMiIgc3R5bGU9InN0cm9rZTojMTgxODE4O3N0cm9rZS13aWR0aDowLjU7IiB3aWR0aD0iNCIgeD0iMTY5LjEzMSIgeT0iNDIwIi8+PHRleHQgZmlsbD0iIzAwMDAwMCIgZm9udC1mYW1pbHk9InNhbnMtc2VyaWYiIGZvbnQtc2l6ZT0iMTQiIGxlbmd0aEFkanVzdD0ic3BhY2luZyIgdGV4dExlbmd0aD0iOTEiIHg9Ijc1LjEzMSIgeT0iNDQyLjIzNDQiPkNhbGVuZGFyIFN5bmM8L3RleHQ+PC9nPjwhLS1lbnRpdHkgRW1haWwgQWxlcnRzLS0+PGcgY2xhc3M9ImVudGl0eSIgZGF0YS1lbnRpdHk9IkVtYWlsIEFsZXJ0cyIgZGF0YS1zb3VyY2UtbGluZT0iMTEiIGRhdGEtdWlkPSJlbnQwMDA5IiBpZD0iZW50aXR5X0VtYWlsIEFsZXJ0cyI+PHJlY3QgZmlsbD0iI0YxRjFGMSIgaGVpZ2h0PSI0NC45ODQ0IiByeD0iMi41IiByeT0iMi41IiBzdHlsZT0ic3Ryb2tlOiMxODE4MTg7c3Ryb2tlLXdpZHRoOjAuNTsiIHdpZHRoPSIxMjQiIHg9IjY3LjYzMSIgeT0iNDgiLz48cmVjdCBmaWxsPSIjRjFGMUYxIiBoZWlnaHQ9IjEwIiBzdHlsZT0ic3Ryb2tlOiMxODE4MTg7c3Ryb2tlLXdpZHRoOjAuNTsiIHdpZHRoPSIxNSIgeD0iMTcxLjYzMSIgeT0iNTMiLz48cmVjdCBmaWxsPSIjRjFGMUYxIiBoZWlnaHQ9IjIiIHN0eWxlPSJzdHJva2U6IzE4MTgxODtzdHJva2Utd2lkdGg6MC41OyIgd2lkdGg9IjQiIHg9IjE2OS42MzEiIHk9IjU1Ii8+PHJlY3QgZmlsbD0iI0YxRjFGMSIgaGVpZ2h0PSIyIiBzdHlsZT0ic3Ryb2tlOiMxODE4MTg7c3Ryb2tlLXdpZHRoOjAuNTsiIHdpZHRoPSI0IiB4PSIxNjkuNjMxIiB5PSI1OSIvPjx0ZXh0IGZpbGw9IiMwMDAwMDAiIGZvbnQtZmFtaWx5PSJzYW5zLXNlcmlmIiBmb250LXNpemU9IjE0IiBsZW5ndGhBZGp1c3Q9InNwYWNpbmciIHRleHRMZW5ndGg9Ijg0IiB4PSI4Mi42MzEiIHk9IjgxLjIzNDQiPkVtYWlsIEFsZXJ0czwvdGV4dD48L2c+PCEtLWVudGl0eSBTeXN0ZW0gTm90aWZpY2F0aW9ucy0tPjxnIGNsYXNzPSJlbnRpdHkiIGRhdGEtZW50aXR5PSJTeXN0ZW0gTm90aWZpY2F0aW9ucyIgZGF0YS1zb3VyY2UtbGluZT0iMTIiIGRhdGEtdWlkPSJlbnQwMDExIiBpZD0iZW50aXR5X1N5c3RlbSBOb3RpZmljYXRpb25zIj48cmVjdCBmaWxsPSIjRjFGMUYxIiBoZWlnaHQ9IjQ0Ljk4NDQiIHJ4PSIyLjUiIHJ5PSIyLjUiIHN0eWxlPSJzdHJva2U6IzE4MTgxODtzdHJva2Utd2lkdGg6MC41OyIgd2lkdGg9IjE4MCIgeD0iMjI2LjYzMSIgeT0iNDgiLz48cmVjdCBmaWxsPSIjRjFGMUYxIiBoZWlnaHQ9IjEwIiBzdHlsZT0ic3Ryb2tlOiMxODE4MTg7c3Ryb2tlLXdpZHRoOjAuNTsiIHdpZHRoPSIxNSIgeD0iMzg2LjYzMSIgeT0iNTMiLz48cmVjdCBmaWxsPSIjRjFGMUYxIiBoZWlnaHQ9IjIiIHN0eWxlPSJzdHJva2U6IzE4MTgxODtzdHJva2Utd2lkdGg6MC41OyIgd2lkdGg9IjQiIHg9IjM4NC42MzEiIHk9IjU1Ii8+PHJlY3QgZmlsbD0iI0YxRjFGMSIgaGVpZ2h0PSIyIiBzdHlsZT0ic3Ryb2tlOiMxODE4MTg7c3Ryb2tlLXdpZHRoOjAuNTsiIHdpZHRoPSI0IiB4PSIzODQuNjMxIiB5PSI1OSIvPjx0ZXh0IGZpbGw9IiMwMDAwMDAiIGZvbnQtZmFtaWx5PSJzYW5zLXNlcmlmIiBmb250LXNpemU9IjE0IiBsZW5ndGhBZGp1c3Q9InNwYWNpbmciIHRleHRMZW5ndGg9IjE0MCIgeD0iMjQxLjYzMSIgeT0iODEuMjM0NCI+U3lzdGVtIE5vdGlmaWNhdGlvbnM8L3RleHQ+PC9nPjwhLS1lbnRpdHkgTG9naW4vTG9nb3V0LS0+PGcgY2xhc3M9ImVudGl0eSIgZGF0YS1lbnRpdHk9IkxvZ2luL0xvZ291dCIgZGF0YS1zb3VyY2UtbGluZT0iMTYiIGRhdGEtdWlkPSJlbnQwMDE0IiBpZD0iZW50aXR5X0xvZ2luL0xvZ291dCI+PHJlY3QgZmlsbD0iI0YxRjFGMSIgaGVpZ2h0PSI0NC45ODQ0IiByeD0iMi41IiByeT0iMi41IiBzdHlsZT0ic3Ryb2tlOiMxODE4MTg7c3Ryb2tlLXdpZHRoOjAuNTsiIHdpZHRoPSIxMjQiIHg9IjUxLjYzMSIgeT0iNTgyIi8+PHJlY3QgZmlsbD0iI0YxRjFGMSIgaGVpZ2h0PSIxMCIgc3R5bGU9InN0cm9rZTojMTgxODE4O3N0cm9rZS13aWR0aDowLjU7IiB3aWR0aD0iMTUiIHg9IjE1NS42MzEiIHk9IjU4NyIvPjxyZWN0IGZpbGw9IiNGMUYxRjEiIGhlaWdodD0iMiIgc3R5bGU9InN0cm9rZTojMTgxODE4O3N0cm9rZS13aWR0aDowLjU7IiB3aWR0aD0iNCIgeD0iMTUzLjYzMSIgeT0iNTg5Ii8+PHJlY3QgZmlsbD0iI0YxRjFGMSIgaGVpZ2h0PSIyIiBzdHlsZT0ic3Ryb2tlOiMxODE4MTg7c3Ryb2tlLXdpZHRoOjAuNTsiIHdpZHRoPSI0IiB4PSIxNTMuNjMxIiB5PSI1OTMiLz48dGV4dCBmaWxsPSIjMDAwMDAwIiBmb250LWZhbWlseT0ic2Fucy1zZXJpZiIgZm9udC1zaXplPSIxNCIgbGVuZ3RoQWRqdXN0PSJzcGFjaW5nIiB0ZXh0TGVuZ3RoPSI4NCIgeD0iNjYuNjMxIiB5PSI2MTUuMjM0NCI+TG9naW4vTG9nb3V0PC90ZXh0PjwvZz48IS0tZW50aXR5IENhbGVuZGFyIERhdGEtLT48ZyBjbGFzcz0iZW50aXR5IiBkYXRhLWVudGl0eT0iQ2FsZW5kYXIgRGF0YSIgZGF0YS1zb3VyY2UtbGluZT0iMjAiIGRhdGEtdWlkPSJlbnQwMDE2IiBpZD0iZW50aXR5X0NhbGVuZGFyIERhdGEiPjxyZWN0IGZpbGw9IiNGMUYxRjEiIGhlaWdodD0iNDQuOTg0NCIgcng9IjIuNSIgcnk9IjIuNSIgc3R5bGU9InN0cm9rZTojMTgxODE4O3N0cm9rZS13aWR0aDowLjU7IiB3aWR0aD0iMTMxIiB4PSIyODMuMTMxIiB5PSI1ODIiLz48cmVjdCBmaWxsPSIjRjFGMUYxIiBoZWlnaHQ9IjEwIiBzdHlsZT0ic3Ryb2tlOiMxODE4MTg7c3Ryb2tlLXdpZHRoOjAuNTsiIHdpZHRoPSIxNSIgeD0iMzk0LjEzMSIgeT0iNTg3Ii8+PHJlY3QgZmlsbD0iI0YxRjFGMSIgaGVpZ2h0PSIyIiBzdHlsZT0ic3Ryb2tlOiMxODE4MTg7c3Ryb2tlLXdpZHRoOjAuNTsiIHdpZHRoPSI0IiB4PSIzOTIuMTMxIiB5PSI1ODkiLz48cmVjdCBmaWxsPSIjRjFGMUYxIiBoZWlnaHQ9IjIiIHN0eWxlPSJzdHJva2U6IzE4MTgxODtzdHJva2Utd2lkdGg6MC41OyIgd2lkdGg9IjQiIHg9IjM5Mi4xMzEiIHk9IjU5MyIvPjx0ZXh0IGZpbGw9IiMwMDAwMDAiIGZvbnQtZmFtaWx5PSJzYW5zLXNlcmlmIiBmb250LXNpemU9IjE0IiBsZW5ndGhBZGp1c3Q9InNwYWNpbmciIHRleHRMZW5ndGg9IjkxIiB4PSIyOTguMTMxIiB5PSI2MTUuMjM0NCI+Q2FsZW5kYXIgRGF0YTwvdGV4dD48L2c+PCEtLWxpbmsgQ2FsZW5kYXIgU3luYyB0byBJQ2FsZW5kYXJTeW5jLS0+PGcgY2xhc3M9ImxpbmsiIGRhdGEtZW50aXR5LTE9IkNhbGVuZGFyIFN5bmMiIGRhdGEtZW50aXR5LTI9IklDYWxlbmRhclN5bmMiIGRhdGEtc291cmNlLWxpbmU9IjciIGRhdGEtdWlkPSJsbms3IiBpZD0ibGlua19DYWxlbmRhciBTeW5jX0lDYWxlbmRhclN5bmMiPjxwYXRoIGQ9Ik0xMjUuNjMxLDQwOC43NSBDMTI1LjYzMSwzNzYuNzMgMTI1LjYzMSwzMzQuODQgMTI1LjYzMSwyOTkuMDgiIGZpbGw9Im5vbmUiIGlkPSJDYWxlbmRhciBTeW5jLXRvLUlDYWxlbmRhclN5bmMiIHN0eWxlPSJzdHJva2U6IzE4MTgxODtzdHJva2Utd2lkdGg6MTsiLz48cG9seWdvbiBmaWxsPSJub25lIiBwb2ludHM9IjEyNS42MzEsMjgxLjA4LDExOS42MzEsMjk5LjA4LDEzMS42MzEsMjk5LjA4LDEyNS42MzEsMjgxLjA4IiBzdHlsZT0ic3Ryb2tlOiMxODE4MTg7c3Ryb2tlLXdpZHRoOjE7Ii8+PC9nPjwhLS1saW5rIEVtYWlsIEFsZXJ0cyB0byBJTm90aWZpY2F0aW9uLS0+PGcgY2xhc3M9ImxpbmsiIGRhdGEtZW50aXR5LTE9IkVtYWlsIEFsZXJ0cyIgZGF0YS1lbnRpdHktMj0iSU5vdGlmaWNhdGlvbiIgZGF0YS1zb3VyY2UtbGluZT0iMTEiIGRhdGEtdWlkPSJsbmsxMCIgaWQ9ImxpbmtfRW1haWwgQWxlcnRzX0lOb3RpZmljYXRpb24iPjxwYXRoIGQ9Ik0xNDkuMTcxLDkzLjAzIEMxNzguMTIxLDEyNC45MyAyMjAuMzg0OSwxNzEuNDkwMiAyNTIuOTM0OSwyMDcuMzYwMiIgZmlsbD0ibm9uZSIgaWQ9IkVtYWlsIEFsZXJ0cy10by1JTm90aWZpY2F0aW9uIiBzdHlsZT0ic3Ryb2tlOiMxODE4MTg7c3Ryb2tlLXdpZHRoOjE7Ii8+PHBvbHlnb24gZmlsbD0ibm9uZSIgcG9pbnRzPSIyNjUuMDMxLDIyMC42OSwyNTcuMzc4MiwyMDMuMzI4MSwyNDguNDkxNiwyMTEuMzkyMiwyNjUuMDMxLDIyMC42OSIgc3R5bGU9InN0cm9rZTojMTgxODE4O3N0cm9rZS13aWR0aDoxOyIvPjwvZz48IS0tbGluayBTeXN0ZW0gTm90aWZpY2F0aW9ucyB0byBJTm90aWZpY2F0aW9uLS0+PGcgY2xhc3M9ImxpbmsiIGRhdGEtZW50aXR5LTE9IlN5c3RlbSBOb3RpZmljYXRpb25zIiBkYXRhLWVudGl0eS0yPSJJTm90aWZpY2F0aW9uIiBkYXRhLXNvdXJjZS1saW5lPSIxMiIgZGF0YS11aWQ9ImxuazEyIiBpZD0ibGlua19TeXN0ZW0gTm90aWZpY2F0aW9uc19JTm90aWZpY2F0aW9uIj48cGF0aCBkPSJNMzEzLjYxMSw5My4wMyBDMzA5LjE1MSwxMjQuOTMgMzAzLjI2MDcsMTY2Ljk5NDQgMjk4LjIzMDcsMjAyLjg2NDQiIGZpbGw9Im5vbmUiIGlkPSJTeXN0ZW0gTm90aWZpY2F0aW9ucy10by1JTm90aWZpY2F0aW9uIiBzdHlsZT0ic3Ryb2tlOiMxODE4MTg7c3Ryb2tlLXdpZHRoOjE7Ii8+PHBvbHlnb24gZmlsbD0ibm9uZSIgcG9pbnRzPSIyOTUuNzMxLDIyMC42OSwzMDQuMTcyNSwyMDMuNjk3NiwyOTIuMjg4OCwyMDIuMDMxMiwyOTUuNzMxLDIyMC42OSIgc3R5bGU9InN0cm9rZTojMTgxODE4O3N0cm9rZS13aWR0aDoxOyIvPjwvZz48IS0tbGluayBVSSB0byBDTS0tPjxnIGNsYXNzPSJsaW5rIiBkYXRhLWVudGl0eS0xPSJVSSIgZGF0YS1lbnRpdHktMj0iQ00iIGRhdGEtc291cmNlLWxpbmU9IjIzIiBkYXRhLXVpZD0ibG5rMTciIGlkPSJsaW5rX1VJX0NNIj48cGF0aCBkPSJNMjQuNjMxLDMwNS42OTk2IEMyNC42MzEsMzA2Ljk1MDcgMjQuNjMxLDMwOC4yMTMgMjQuNjMxLDMwOS40ODUxIEMyNC42MzEsMzE5LjY2MjQgMjQuNjMxLDMzMC40NzM0IDI0LjYzMSwzNDEuMjgzNyBDMjQuNjMxLDM0Ni42ODg5IDI0LjYzMSwzNTIuMDkzOSAyNC42MzEsMzU3LjQxOTQgQzI0LjYzMSwzNjAuMDgyMSAyNC42MzEsMzYyLjcyNSAyNC42MzEsMzY1LjMzODEgQzI0LjYzMSwzNjUuOTkxNCAyNC42MzEsMzY2LjY0MjggMjQuNjMxLDM2Ny4yOTIyIEMyNC42MzEsMzY3LjQ1NDUgMjQuNjMxLDM2MS42MTY4IDI0LjYzMSwzNjEuNzc4OSIgZmlsbD0ibm9uZSIgaWQ9IlVJLXRvLUNNIiBzdHlsZT0ic3Ryb2tlOiMxODE4MTg7c3Ryb2tlLXdpZHRoOjE7Ii8+PHBvbHlnb24gZmlsbD0iIzE4MTgxOCIgcG9pbnRzPSIyNC42MzEsMzY3Ljc3ODksMjguNjMxLDM1OC43Nzg5LDI0LjYzMSwzNjIuNzc4OSwyMC42MzEsMzU4Ljc3ODksMjQuNjMxLDM2Ny43Nzg5IiBzdHlsZT0ic3Ryb2tlOiMxODE4MTg7c3Ryb2tlLXdpZHRoOjE7Ii8+PHRleHQgZmlsbD0iIzAwMDAwMCIgZm9udC1mYW1pbHk9InNhbnMtc2VyaWYiIGZvbnQtc2l6ZT0iMTMiIGxlbmd0aEFkanVzdD0ic3BhY2luZyIgdGV4dExlbmd0aD0iNTIiIHg9IjI1LjYzMSIgeT0iMzQyLjI4OTEiPnJlcXVpcmVzPC90ZXh0PjwvZz48IS0tbGluayBVSSB0byBOUy0tPjxnIGNsYXNzPSJsaW5rIiBkYXRhLWVudGl0eS0xPSJVSSIgZGF0YS1lbnRpdHktMj0iTlMiIGRhdGEtc291cmNlLWxpbmU9IjI0IiBkYXRhLXVpZD0ibG5rMTgiIGlkPSJsaW5rX1VJX05TIj48cGF0aCBkPSJNMjQuMzM2OCwxNzkuNTgyMiBDMjQuMzQsMTc5LjM5MDUgMjQuMzQzMiwxNzkuMTk4NyAyNC4zNDY1LDE3OS4wMDY5IEMyNC4zNTMsMTc4LjYyMzEgMjQuMzU5NywxNzguMjM5IDI0LjM2NjYsMTc3Ljg1NDUgQzI0LjU4NjYsMTY1LjU1MTkgMjQuOTc4NSwxNTIuOTA1IDI1LjYzMSwxNDEgQzI2LjA0MzUsMTMzLjQ5MjUgMjYuNjY2NiwxMjUuNTQ1IDI3LjM3NDEsMTE3LjgxMDkgQzI3LjM5NjIsMTE3LjU2OTIgMjYuODY2OSwxMjMuMzAyNCAyNi44ODkyLDEyMy4wNjExIiBmaWxsPSJub25lIiBpZD0iVUktdG8tTlMiIHN0eWxlPSJzdHJva2U6IzE4MTgxODtzdHJva2Utd2lkdGg6MTsiLz48cG9seWdvbiBmaWxsPSIjMTgxODE4IiBwb2ludHM9IjI3LjQ0MDcsMTE3LjA4NjUsMjIuNjMwMywxMjUuNjgwNywyNi45ODExLDEyMi4wNjUzLDMwLjU5NjUsMTI2LjQxNjEsMjcuNDQwNywxMTcuMDg2NSIgc3R5bGU9InN0cm9rZTojMTgxODE4O3N0cm9rZS13aWR0aDoxOyIvPjx0ZXh0IGZpbGw9IiMwMDAwMDAiIGZvbnQtZmFtaWx5PSJzYW5zLXNlcmlmIiBmb250LXNpemU9IjEzIiBsZW5ndGhBZGp1c3Q9InNwYWNpbmciIHRleHRMZW5ndGg9IjUyIiB4PSIyNi42MzEiIHk9IjE1NC4yODkxIj5yZXF1aXJlczwvdGV4dD48L2c+PCEtLWxpbmsgQ00gdG8gREItLT48ZyBjbGFzcz0ibGluayIgZGF0YS1lbnRpdHktMT0iQ00iIGRhdGEtZW50aXR5LTI9IkRCIiBkYXRhLXNvdXJjZS1saW5lPSIyNSIgZGF0YS11aWQ9ImxuazE5IiBpZD0ibGlua19DTV9EQiI+PHBhdGggZD0iTTMyLjUzLDQ3OC4wODk5IEMzMi43MDk4LDQ3OC40ODg1IDMyLjg5MzcsNDc4Ljg4NTIgMzMuMDgxNyw0NzkuMjc5OSBDMzMuNDU3Niw0ODAuMDY5MSAzMy44NDk5LDQ4MC44NSAzNC4yNTk0LDQ4MS42MjA2IEMzNS4wNzgzLDQ4My4xNjE5IDM1Ljk2NTcsNDg0LjY2MjQgMzYuOTI3Miw0ODYuMTA3NyBDMzguODUwMiw0ODguOTk4MSA0MS4wNjk3LDQ5MS42Njc1IDQzLjYzMSw0OTQgQzY4LjQ3MSw1MTYuNjMgMTYzLjUwMSw1MDYuNjIgMTkxLjYzMSw1MjUgQzIwOS4wMDYsNTM2LjM1NSAyMjIuNjg4NSw1NTUuMTI3NSAyMzIuMTc4NSw1NzEuNDY3NSBDMjM0LjU1MSw1NzUuNTUyNSAyMzYuNjYxNSw1NzkuNDg1NSAyMzguNTAyMSw1ODMuMTEyNSBDMjM4LjczMjIsNTgzLjU2NTkgMjM4Ljk1OCw1ODQuMDE0NSAyMzkuMTc5Nyw1ODQuNDU4IEMyMzkuMjkwNSw1ODQuNjc5OCAyMzYuNzM0NSw1NzkuNTI0OSAyMzYuODQzMiw1NzkuNzQ0MSIgZmlsbD0ibm9uZSIgaWQ9IkNNLXRvLURCIiBzdHlsZT0ic3Ryb2tlOiMxODE4MTg7c3Ryb2tlLXdpZHRoOjE7Ii8+PHBvbHlnb24gZmlsbD0iIzE4MTgxOCIgcG9pbnRzPSIyMzkuNTA4OSw1ODUuMTE5NCwyMzkuMDkzOCw1NzUuMjc5MywyMzcuMjg3NSw1ODAuNjQsMjMxLjkyNjgsNTc4LjgzMzYsMjM5LjUwODksNTg1LjExOTQiIHN0eWxlPSJzdHJva2U6IzE4MTgxODtzdHJva2Utd2lkdGg6MTsiLz48dGV4dCBmaWxsPSIjMDAwMDAwIiBmb250LWZhbWlseT0ic2Fucy1zZXJpZiIgZm9udC1zaXplPSIxMyIgbGVuZ3RoQWRqdXN0PSJzcGFjaW5nIiB0ZXh0TGVuZ3RoPSI3OCIgeD0iMTY5LjYzMSIgeT0iNTE1LjI4OTEiPnJlYWRzL3dyaXRlczwvdGV4dD48L2c+PCEtLWxpbmsgQ00gdG8gQXV0aC0tPjxnIGNsYXNzPSJsaW5rIiBkYXRhLWVudGl0eS0xPSJDTSIgZGF0YS1lbnRpdHktMj0iQXV0aCIgZGF0YS1zb3VyY2UtbGluZT0iMjYiIGRhdGEtdWlkPSJsbmsyMCIgaWQ9ImxpbmtfQ01fQXV0aCI+PHBhdGggZD0iTTIyLjQ3MzgsNDc4LjYyMzEgQzIyLjQ0NjYsNDc5LjIwNTEgMjIuNDE5Myw0NzkuNzkwMSAyMi4zOTE4LDQ4MC4zNzgxIEMyMi4yODE4LDQ4Mi43MzAyIDIyLjE2OTYsNDg1LjEyOTcgMjIuMDU1Niw0ODcuNTY3MSBDMjEuNTk5Nyw0OTcuMzE2OSAyMS4xMTU0LDUwNy42NzM3IDIwLjYzMSw1MTguMDMgQzIwLjM4ODgsNTIzLjIwODEgMjAuMTQ2Niw1MjguMzg2MSAxOS45MDgsNTMzLjQ4NzkgQzE5Ljg0ODMsNTM0Ljc2MzQgMTkuNzg4OSw1MzYuMDM0MSAxOS43Mjk3LDUzNy4yOTg5IEMxOS43MDAyLDUzNy45MzEyIDE5LjY3MDcsNTM4LjU2MjEgMTkuNjQxMiw1MzkuMTkxNCBDMTkuNjI2NSw1MzkuNTA2IDE5LjYxMTgsNTM5LjgyMDIgMTkuNTk3MSw1NDAuMTM0IEMxOS41ODk4LDU0MC4yOTA5IDE5Ljg2MjgsNTM0LjQ1NDMgMTkuODU1NSw1MzQuNjExIiBmaWxsPSJub25lIiBpZD0iQ00tdG8tQXV0aCIgc3R5bGU9InN0cm9rZTojMTgxODE4O3N0cm9rZS13aWR0aDoxO3N0cm9rZS1kYXNoYXJyYXk6Ny4wLDcuMDsiLz48cG9seWdvbiBmaWxsPSIjMTgxODE4IiBwb2ludHM9IjE5LjU3NTEsNTQwLjYwNDQsMjMuOTkxMyw1MzEuODAxMSwxOS44MDg3LDUzNS42MDk5LDE2LDUzMS40MjczLDE5LjU3NTEsNTQwLjYwNDQiIHN0eWxlPSJzdHJva2U6IzE4MTgxODtzdHJva2Utd2lkdGg6MTsiLz48dGV4dCBmaWxsPSIjMDAwMDAwIiBmb250LWZhbWlseT0ic2Fucy1zZXJpZiIgZm9udC1zaXplPSIxMyIgbGVuZ3RoQWRqdXN0PSJzcGFjaW5nIiB0ZXh0TGVuZ3RoPSIyNiIgeD0iMjIuNjMxIiB5PSI1MTUuMjg5MSI+dXNlczwvdGV4dD48L2c+PCEtLWxpbmsgTlMgdG8gSUNhbGVuZGFyU3luYy0tPjxnIGNsYXNzPSJsaW5rIiBkYXRhLWVudGl0eS0xPSJOUyIgZGF0YS1lbnRpdHktMj0iSUNhbGVuZGFyU3luYyIgZGF0YS1zb3VyY2UtbGluZT0iMjciIGRhdGEtdWlkPSJsbmsyMSIgaWQ9ImxpbmtfTlNfSUNhbGVuZGFyU3luYyI+PHBhdGggZD0iTTQwLjgxNTYsMTE3LjIyNTEgQzQwLjg2MDcsMTE3LjMyNSA0MC45MDYsMTE3LjQyNDYgNDAuOTUxNiwxMTcuNTI0MiBDNDEuMDQyOCwxMTcuNzIzNCA0MS4xMzUsMTE3LjkyMjEgNDEuMjI4MiwxMTguMTIwMyBDNDEuNjAwOSwxMTguOTEzMSA0MS45ODk2LDExOS42OTggNDIuMzk0OCwxMjAuNDczMiBDNDMuMjA1NCwxMjIuMDIzNyA0NC4wODI0LDEyMy41MzU1IDQ1LjAzMTQsMTI0Ljk5NDUgQzQ2LjkyOTMsMTI3LjkxMjMgNDkuMTE0NywxMzAuNjE4OCA1MS42MzEsMTMzIEM2Mi4yODEsMTQzLjA4IDcyLjY1MSwxMzEuMjkgODMuNjMxLDE0MSBDMTA2LjcyMSwxNjEuNDIgMTE2LjA4MTIsMTkwLjEyNTQgMTIwLjc4MTIsMjE0Ljg2NTQiIGZpbGw9Im5vbmUiIGlkPSJOUy10by1JQ2FsZW5kYXJTeW5jIiBzdHlsZT0ic3Ryb2tlOiMxODE4MTg7c3Ryb2tlLXdpZHRoOjE7c3Ryb2tlLWRhc2hhcnJheTo3LjAsNy4wOyIvPjxwb2x5Z29uIGZpbGw9IiMxODE4MTgiIHBvaW50cz0iMTIxLjkwMSwyMjAuNzYsMTI0LjE1MSwyMTEuMTcxNiwxMjAuOTY3OCwyMTUuODQ3OSwxMTYuMjkxNSwyMTIuNjY0NywxMjEuOTAxLDIyMC43NiIgc3R5bGU9InN0cm9rZTojMTgxODE4O3N0cm9rZS13aWR0aDoxOyIvPjx0ZXh0IGZpbGw9IiMwMDAwMDAiIGZvbnQtZmFtaWx5PSJzYW5zLXNlcmlmIiBmb250LXNpemU9IjEzIiBsZW5ndGhBZGp1c3Q9InNwYWNpbmciIHRleHRMZW5ndGg9IjUyIiB4PSI5Ny42MzEiIHk9IjE1NC4yODkxIj5yZXF1aXJlczwvdGV4dD48L2c+PCEtLVNSQz1bVEw1MVJpOG00QnBkNUlsa1dKajJiWVpxNEFibVlKWExGTXBER1lxYlRjamxHQVpqWV9lNFJkYlB4UllYWVRMVUI2amNUY1F5YmdQLURQZXFtc0pkbzRBWGNVbTE5S3EwN1VtQVVDeTA3ZWlMTGdKdFFDa0JiYS1tTUFYVTlhSjdSbXNoV3ZCOG9rWUtfeW1vLVBsSUV5NDZESHdmemMwTmpUaDRnMWlWZV9CeUd3SnZZVUNtNnFnbzlfTkpWYmo2b19pUUxHTkJZWW94Yy1FZVNMMkw1eVRLbW4zX0pwdEVOcFJ5dVl6X0RHWEt4RjFXWmFoRl82YVFKV3RNb0ZZQ0Jld2l4djh6MUJRUnk5LUh2bzhpUVd3TXRYZmJvVk1XVi1lMHo5ODBVZ2kwdWp4RHBiUG45QVBKNE1sRGVWcmc3QmRzY2xkZjA4LXN0RjZ6T3RsejFXMDBdLS0+PC9nPjwvc3ZnPg==;" vertex="1" parent="1">
            <mxGeometry x="99.03999999999999" y="3368" width="652.14" height="965" as="geometry" />
          </mxCell>
        </UserObject>
      </root>
    </mxGraphModel>
  </diagram>
</mxfile>
